%TF.GenerationSoftware,KiCad,Pcbnew,9.0.3*%
%TF.CreationDate,2025-07-29T12:02:24-04:00*%
%TF.ProjectId,resonet_board_square.kicad_pro,7265736f-6e65-4745-9f62-6f6172645f73,rev?*%
%TF.SameCoordinates,Original*%
%TF.FileFunction,Copper,L1,Top*%
%TF.FilePolarity,Positive*%
%FSLAX46Y46*%
G04 Gerber Fmt 4.6, Leading zero omitted, Abs format (unit mm)*
G04 Created by KiCad (PCBNEW 9.0.3) date 2025-07-29 12:02:24*
%MOMM*%
%LPD*%
G01*
G04 APERTURE LIST*
G04 Aperture macros list*
%AMRoundRect*
0 Rectangle with rounded corners*
0 $1 Rounding radius*
0 $2 $3 $4 $5 $6 $7 $8 $9 X,Y pos of 4 corners*
0 Add a 4 corners polygon primitive as box body*
4,1,4,$2,$3,$4,$5,$6,$7,$8,$9,$2,$3,0*
0 Add four circle primitives for the rounded corners*
1,1,$1+$1,$2,$3*
1,1,$1+$1,$4,$5*
1,1,$1+$1,$6,$7*
1,1,$1+$1,$8,$9*
0 Add four rect primitives between the rounded corners*
20,1,$1+$1,$2,$3,$4,$5,0*
20,1,$1+$1,$4,$5,$6,$7,0*
20,1,$1+$1,$6,$7,$8,$9,0*
20,1,$1+$1,$8,$9,$2,$3,0*%
G04 Aperture macros list end*
%TA.AperFunction,ComponentPad*%
%ADD10C,2.600000*%
%TD*%
%TA.AperFunction,ComponentPad*%
%ADD11RoundRect,0.250000X-1.050000X1.050000X-1.050000X-1.050000X1.050000X-1.050000X1.050000X1.050000X0*%
%TD*%
%TA.AperFunction,ComponentPad*%
%ADD12C,1.600000*%
%TD*%
%TA.AperFunction,ComponentPad*%
%ADD13RoundRect,0.249999X-0.850001X-0.850001X0.850001X-0.850001X0.850001X0.850001X-0.850001X0.850001X0*%
%TD*%
%TA.AperFunction,ComponentPad*%
%ADD14C,2.200000*%
%TD*%
%TA.AperFunction,ComponentPad*%
%ADD15RoundRect,0.249999X0.850001X0.850001X-0.850001X0.850001X-0.850001X-0.850001X0.850001X-0.850001X0*%
%TD*%
%TA.AperFunction,ComponentPad*%
%ADD16R,1.000000X1.000000*%
%TD*%
%TA.AperFunction,ComponentPad*%
%ADD17R,1.524000X1.524000*%
%TD*%
%TA.AperFunction,ComponentPad*%
%ADD18C,1.524000*%
%TD*%
%TA.AperFunction,ComponentPad*%
%ADD19C,1.000000*%
%TD*%
%TA.AperFunction,ComponentPad*%
%ADD20RoundRect,0.250000X1.050000X-1.050000X1.050000X1.050000X-1.050000X1.050000X-1.050000X-1.050000X0*%
%TD*%
%TA.AperFunction,ComponentPad*%
%ADD21RoundRect,0.250000X-1.050000X-1.050000X1.050000X-1.050000X1.050000X1.050000X-1.050000X1.050000X0*%
%TD*%
%TA.AperFunction,ViaPad*%
%ADD22C,1.000000*%
%TD*%
%TA.AperFunction,Conductor*%
%ADD23C,0.400000*%
%TD*%
%TA.AperFunction,Conductor*%
%ADD24C,0.800000*%
%TD*%
G04 APERTURE END LIST*
D10*
X59827500Y-84535000D03*
D11*
X59827500Y-79455000D03*
D10*
X59827500Y-104535000D03*
D11*
X59827500Y-99455000D03*
D10*
X59827500Y-64535000D03*
D11*
X59827500Y-59455000D03*
D10*
X60172500Y-124080000D03*
D11*
X60172500Y-119000000D03*
D12*
X71000000Y-75650000D03*
X71000000Y-88350000D03*
X71500000Y-127850000D03*
X71500000Y-115150000D03*
D13*
X77920000Y-59000000D03*
D14*
X88080000Y-59000000D03*
D15*
X88080000Y-86000000D03*
D14*
X77920000Y-86000000D03*
D12*
X71327500Y-95650000D03*
X71327500Y-108350000D03*
D13*
X78920000Y-106000000D03*
D14*
X89080000Y-106000000D03*
D13*
X77920000Y-80000000D03*
D14*
X88080000Y-80000000D03*
D16*
X115827500Y-97455000D03*
D15*
X89080000Y-99000000D03*
D14*
X78920000Y-99000000D03*
D13*
X78920000Y-127000000D03*
D14*
X89080000Y-127000000D03*
D12*
X70827500Y-68885000D03*
X70827500Y-56185000D03*
D15*
X89080000Y-119500000D03*
D14*
X78920000Y-119500000D03*
D17*
X99000000Y-67220000D03*
D18*
X99000000Y-69760000D03*
X99000000Y-72300000D03*
X99000000Y-74840000D03*
X99000000Y-77380000D03*
X99000000Y-79920000D03*
X99000000Y-82460000D03*
X99000000Y-85000000D03*
X99000000Y-87540000D03*
X99000000Y-90080000D03*
D19*
X115827500Y-93455000D03*
D15*
X88080000Y-66000000D03*
D14*
X77920000Y-66000000D03*
D20*
X116000000Y-111000000D03*
D10*
X116000000Y-105920000D03*
D21*
X101840000Y-124000000D03*
D10*
X106920000Y-124000000D03*
X112000000Y-124000000D03*
X117080000Y-124000000D03*
D22*
X95000000Y-76000000D03*
X89000000Y-92000000D03*
X78000000Y-92000000D03*
D23*
X74000000Y-96000000D02*
X78000000Y-92000000D01*
X74000000Y-102000000D02*
X74000000Y-96000000D01*
X71327500Y-104672500D02*
X74000000Y-102000000D01*
X71327500Y-108350000D02*
X71327500Y-104672500D01*
X105000000Y-74000000D02*
X103300000Y-72300000D01*
X117080000Y-124000000D02*
X105000000Y-111920000D01*
X105000000Y-111920000D02*
X105000000Y-74000000D01*
X103300000Y-72300000D02*
X99000000Y-72300000D01*
X64000000Y-59000000D02*
X67000000Y-56000000D01*
X67000000Y-56000000D02*
X70642500Y-56000000D01*
X64000000Y-63000000D02*
X64000000Y-59000000D01*
X62465000Y-64535000D02*
X64000000Y-63000000D01*
X59827500Y-64535000D02*
X62465000Y-64535000D01*
X70642500Y-56000000D02*
X70827500Y-56185000D01*
X95000000Y-85000000D02*
X95000000Y-76000000D01*
X97540000Y-87540000D02*
X95000000Y-85000000D01*
X99000000Y-87540000D02*
X97540000Y-87540000D01*
X79000000Y-106000000D02*
X78920000Y-106000000D01*
D24*
X86000000Y-99000000D02*
X79000000Y-106000000D01*
X88080000Y-86000000D02*
X88080000Y-88920000D01*
X88080000Y-88920000D02*
X86000000Y-91000000D01*
X86000000Y-91000000D02*
X86000000Y-99000000D01*
D23*
X91000000Y-92000000D02*
X89000000Y-92000000D01*
X101000000Y-94000000D02*
X93000000Y-94000000D01*
X101000000Y-85000000D02*
X101000000Y-94000000D01*
X93000000Y-94000000D02*
X91000000Y-92000000D01*
X99000000Y-85000000D02*
X101000000Y-85000000D01*
D24*
X82920000Y-95000000D02*
X78920000Y-99000000D01*
X83000000Y-95000000D02*
X82920000Y-95000000D01*
X86000000Y-80000000D02*
X83000000Y-83000000D01*
X88080000Y-80000000D02*
X86000000Y-80000000D01*
X83000000Y-83000000D02*
X83000000Y-95000000D01*
D23*
X71000000Y-88350000D02*
X75570000Y-88350000D01*
X75570000Y-88350000D02*
X77920000Y-86000000D01*
X77920000Y-80000000D02*
X77920000Y-86000000D01*
X92000000Y-82080000D02*
X88080000Y-86000000D01*
X88080000Y-67080000D02*
X92000000Y-71000000D01*
X92000000Y-71000000D02*
X92000000Y-82080000D01*
D24*
X88080000Y-66000000D02*
X88080000Y-67080000D01*
X92000000Y-66000000D02*
X88080000Y-66000000D01*
X93220000Y-67220000D02*
X92000000Y-66000000D01*
X99000000Y-67220000D02*
X93220000Y-67220000D01*
D23*
X102000000Y-77840000D02*
X102000000Y-114000000D01*
X102000000Y-114000000D02*
X112000000Y-124000000D01*
X99000000Y-74840000D02*
X102000000Y-77840000D01*
X59827500Y-84535000D02*
X63642500Y-88350000D01*
X59827500Y-104535000D02*
X59827500Y-104827500D01*
X59827500Y-104827500D02*
X60000000Y-105000000D01*
X60000000Y-105000000D02*
X60000000Y-104655000D01*
X60172500Y-124080000D02*
X63942500Y-127850000D01*
D24*
X94000000Y-127000000D02*
X91000000Y-124000000D01*
X106000000Y-127000000D02*
X94000000Y-127000000D01*
X91000000Y-124000000D02*
X83000000Y-124000000D01*
X106920000Y-126080000D02*
X106000000Y-127000000D01*
X106920000Y-124000000D02*
X106920000Y-126080000D01*
D23*
X112000000Y-123800000D02*
X111655000Y-123455000D01*
X112000000Y-124000000D02*
X112000000Y-123800000D01*
X119827500Y-101455000D02*
X115827500Y-97455000D01*
X119827500Y-108455000D02*
X119827500Y-101455000D01*
X116000000Y-111000000D02*
X117282500Y-111000000D01*
X117282500Y-111000000D02*
X119827500Y-108455000D01*
X60000000Y-104655000D02*
X69005000Y-95650000D01*
X69005000Y-95650000D02*
X71327500Y-95650000D01*
X63642500Y-88350000D02*
X71000000Y-88350000D01*
X73185000Y-56185000D02*
X70827500Y-56185000D01*
X76000000Y-59000000D02*
X73185000Y-56185000D01*
X77920000Y-59000000D02*
X76000000Y-59000000D01*
X77920000Y-59000000D02*
X77920000Y-66000000D01*
X89080000Y-99000000D02*
X89080000Y-106000000D01*
X89080000Y-127920000D02*
X89080000Y-127000000D01*
X87000000Y-130000000D02*
X89080000Y-127920000D01*
X75000000Y-130000000D02*
X87000000Y-130000000D01*
X72850000Y-127850000D02*
X75000000Y-130000000D01*
X71500000Y-127850000D02*
X72850000Y-127850000D01*
X63942500Y-127850000D02*
X71500000Y-127850000D01*
D24*
X80000000Y-127000000D02*
X78920000Y-127000000D01*
X83000000Y-113000000D02*
X83000000Y-124000000D01*
X78920000Y-108920000D02*
X83000000Y-113000000D01*
X78920000Y-106000000D02*
X78920000Y-108920000D01*
X83000000Y-124000000D02*
X80000000Y-127000000D01*
M02*
