%TF.GenerationSoftware,KiCad,Pcbnew,9.0.3*%
%TF.CreationDate,2025-07-29T12:02:24-04:00*%
%TF.ProjectId,resonet_board_square.kicad_pro,7265736f-6e65-4745-9f62-6f6172645f73,rev?*%
%TF.SameCoordinates,Original*%
%TF.FileFunction,Legend,Top*%
%TF.FilePolarity,Positive*%
%FSLAX46Y46*%
G04 Gerber Fmt 4.6, Leading zero omitted, Abs format (unit mm)*
G04 Created by KiCad (PCBNEW 9.0.3) date 2025-07-29 12:02:24*
%MOMM*%
%LPD*%
G01*
G04 APERTURE LIST*
G04 Aperture macros list*
%AMRoundRect*
0 Rectangle with rounded corners*
0 $1 Rounding radius*
0 $2 $3 $4 $5 $6 $7 $8 $9 X,Y pos of 4 corners*
0 Add a 4 corners polygon primitive as box body*
4,1,4,$2,$3,$4,$5,$6,$7,$8,$9,$2,$3,0*
0 Add four circle primitives for the rounded corners*
1,1,$1+$1,$2,$3*
1,1,$1+$1,$4,$5*
1,1,$1+$1,$6,$7*
1,1,$1+$1,$8,$9*
0 Add four rect primitives between the rounded corners*
20,1,$1+$1,$2,$3,$4,$5,0*
20,1,$1+$1,$4,$5,$6,$7,0*
20,1,$1+$1,$6,$7,$8,$9,0*
20,1,$1+$1,$8,$9,$2,$3,0*%
G04 Aperture macros list end*
%ADD10C,0.100000*%
%ADD11C,0.375000*%
%ADD12C,0.150000*%
%ADD13C,0.000000*%
%ADD14C,0.120000*%
%ADD15C,2.600000*%
%ADD16RoundRect,0.250000X-1.050000X1.050000X-1.050000X-1.050000X1.050000X-1.050000X1.050000X1.050000X0*%
%ADD17C,2.700000*%
%ADD18C,1.600000*%
%ADD19RoundRect,0.249999X-0.850001X-0.850001X0.850001X-0.850001X0.850001X0.850001X-0.850001X0.850001X0*%
%ADD20C,2.200000*%
%ADD21RoundRect,0.249999X0.850001X0.850001X-0.850001X0.850001X-0.850001X-0.850001X0.850001X-0.850001X0*%
%ADD22R,1.000000X1.000000*%
%ADD23R,1.524000X1.524000*%
%ADD24C,1.524000*%
%ADD25C,1.000000*%
%ADD26RoundRect,0.250000X1.050000X-1.050000X1.050000X1.050000X-1.050000X1.050000X-1.050000X-1.050000X0*%
%ADD27RoundRect,0.250000X-1.050000X-1.050000X1.050000X-1.050000X1.050000X1.050000X-1.050000X1.050000X0*%
G04 APERTURE END LIST*
D10*
X80661027Y-137872419D02*
X80994360Y-138872419D01*
X80994360Y-138872419D02*
X81327693Y-137872419D01*
X82184836Y-138872419D02*
X81613408Y-138872419D01*
X81899122Y-138872419D02*
X81899122Y-137872419D01*
X81899122Y-137872419D02*
X81803884Y-138015276D01*
X81803884Y-138015276D02*
X81708646Y-138110514D01*
X81708646Y-138110514D02*
X81613408Y-138158133D01*
X82613408Y-138777180D02*
X82661027Y-138824800D01*
X82661027Y-138824800D02*
X82613408Y-138872419D01*
X82613408Y-138872419D02*
X82565789Y-138824800D01*
X82565789Y-138824800D02*
X82613408Y-138777180D01*
X82613408Y-138777180D02*
X82613408Y-138872419D01*
X83280074Y-137872419D02*
X83375312Y-137872419D01*
X83375312Y-137872419D02*
X83470550Y-137920038D01*
X83470550Y-137920038D02*
X83518169Y-137967657D01*
X83518169Y-137967657D02*
X83565788Y-138062895D01*
X83565788Y-138062895D02*
X83613407Y-138253371D01*
X83613407Y-138253371D02*
X83613407Y-138491466D01*
X83613407Y-138491466D02*
X83565788Y-138681942D01*
X83565788Y-138681942D02*
X83518169Y-138777180D01*
X83518169Y-138777180D02*
X83470550Y-138824800D01*
X83470550Y-138824800D02*
X83375312Y-138872419D01*
X83375312Y-138872419D02*
X83280074Y-138872419D01*
X83280074Y-138872419D02*
X83184836Y-138824800D01*
X83184836Y-138824800D02*
X83137217Y-138777180D01*
X83137217Y-138777180D02*
X83089598Y-138681942D01*
X83089598Y-138681942D02*
X83041979Y-138491466D01*
X83041979Y-138491466D02*
X83041979Y-138253371D01*
X83041979Y-138253371D02*
X83089598Y-138062895D01*
X83089598Y-138062895D02*
X83137217Y-137967657D01*
X83137217Y-137967657D02*
X83184836Y-137920038D01*
X83184836Y-137920038D02*
X83280074Y-137872419D01*
X84041979Y-138777180D02*
X84089598Y-138824800D01*
X84089598Y-138824800D02*
X84041979Y-138872419D01*
X84041979Y-138872419D02*
X83994360Y-138824800D01*
X83994360Y-138824800D02*
X84041979Y-138777180D01*
X84041979Y-138777180D02*
X84041979Y-138872419D01*
X84708645Y-137872419D02*
X84803883Y-137872419D01*
X84803883Y-137872419D02*
X84899121Y-137920038D01*
X84899121Y-137920038D02*
X84946740Y-137967657D01*
X84946740Y-137967657D02*
X84994359Y-138062895D01*
X84994359Y-138062895D02*
X85041978Y-138253371D01*
X85041978Y-138253371D02*
X85041978Y-138491466D01*
X85041978Y-138491466D02*
X84994359Y-138681942D01*
X84994359Y-138681942D02*
X84946740Y-138777180D01*
X84946740Y-138777180D02*
X84899121Y-138824800D01*
X84899121Y-138824800D02*
X84803883Y-138872419D01*
X84803883Y-138872419D02*
X84708645Y-138872419D01*
X84708645Y-138872419D02*
X84613407Y-138824800D01*
X84613407Y-138824800D02*
X84565788Y-138777180D01*
X84565788Y-138777180D02*
X84518169Y-138681942D01*
X84518169Y-138681942D02*
X84470550Y-138491466D01*
X84470550Y-138491466D02*
X84470550Y-138253371D01*
X84470550Y-138253371D02*
X84518169Y-138062895D01*
X84518169Y-138062895D02*
X84565788Y-137967657D01*
X84565788Y-137967657D02*
X84613407Y-137920038D01*
X84613407Y-137920038D02*
X84708645Y-137872419D01*
X59303884Y-88491466D02*
X60065789Y-88491466D01*
X59684836Y-88872419D02*
X59684836Y-88110514D01*
X59303884Y-128491466D02*
X60065789Y-128491466D01*
X59684836Y-128872419D02*
X59684836Y-128110514D01*
X59303884Y-68491466D02*
X60065789Y-68491466D01*
X59684836Y-68872419D02*
X59684836Y-68110514D01*
X59303884Y-108491466D02*
X60065789Y-108491466D01*
X59684836Y-108872419D02*
X59684836Y-108110514D01*
X124508533Y-106303884D02*
X124508533Y-107065789D01*
X124303884Y-110491466D02*
X125065789Y-110491466D01*
X124684836Y-110872419D02*
X124684836Y-110110514D01*
X116218169Y-130858800D02*
X116332455Y-130896895D01*
X116332455Y-130896895D02*
X116522931Y-130896895D01*
X116522931Y-130896895D02*
X116599122Y-130858800D01*
X116599122Y-130858800D02*
X116637217Y-130820704D01*
X116637217Y-130820704D02*
X116675312Y-130744514D01*
X116675312Y-130744514D02*
X116675312Y-130668323D01*
X116675312Y-130668323D02*
X116637217Y-130592133D01*
X116637217Y-130592133D02*
X116599122Y-130554038D01*
X116599122Y-130554038D02*
X116522931Y-130515942D01*
X116522931Y-130515942D02*
X116370550Y-130477847D01*
X116370550Y-130477847D02*
X116294360Y-130439752D01*
X116294360Y-130439752D02*
X116256265Y-130401657D01*
X116256265Y-130401657D02*
X116218169Y-130325466D01*
X116218169Y-130325466D02*
X116218169Y-130249276D01*
X116218169Y-130249276D02*
X116256265Y-130173085D01*
X116256265Y-130173085D02*
X116294360Y-130134990D01*
X116294360Y-130134990D02*
X116370550Y-130096895D01*
X116370550Y-130096895D02*
X116561027Y-130096895D01*
X116561027Y-130096895D02*
X116675312Y-130134990D01*
X117475313Y-130820704D02*
X117437217Y-130858800D01*
X117437217Y-130858800D02*
X117322932Y-130896895D01*
X117322932Y-130896895D02*
X117246741Y-130896895D01*
X117246741Y-130896895D02*
X117132455Y-130858800D01*
X117132455Y-130858800D02*
X117056265Y-130782609D01*
X117056265Y-130782609D02*
X117018170Y-130706419D01*
X117018170Y-130706419D02*
X116980074Y-130554038D01*
X116980074Y-130554038D02*
X116980074Y-130439752D01*
X116980074Y-130439752D02*
X117018170Y-130287371D01*
X117018170Y-130287371D02*
X117056265Y-130211180D01*
X117056265Y-130211180D02*
X117132455Y-130134990D01*
X117132455Y-130134990D02*
X117246741Y-130096895D01*
X117246741Y-130096895D02*
X117322932Y-130096895D01*
X117322932Y-130096895D02*
X117437217Y-130134990D01*
X117437217Y-130134990D02*
X117475313Y-130173085D01*
X118199122Y-130896895D02*
X117818170Y-130896895D01*
X117818170Y-130896895D02*
X117818170Y-130096895D01*
X111218169Y-130858800D02*
X111332455Y-130896895D01*
X111332455Y-130896895D02*
X111522931Y-130896895D01*
X111522931Y-130896895D02*
X111599122Y-130858800D01*
X111599122Y-130858800D02*
X111637217Y-130820704D01*
X111637217Y-130820704D02*
X111675312Y-130744514D01*
X111675312Y-130744514D02*
X111675312Y-130668323D01*
X111675312Y-130668323D02*
X111637217Y-130592133D01*
X111637217Y-130592133D02*
X111599122Y-130554038D01*
X111599122Y-130554038D02*
X111522931Y-130515942D01*
X111522931Y-130515942D02*
X111370550Y-130477847D01*
X111370550Y-130477847D02*
X111294360Y-130439752D01*
X111294360Y-130439752D02*
X111256265Y-130401657D01*
X111256265Y-130401657D02*
X111218169Y-130325466D01*
X111218169Y-130325466D02*
X111218169Y-130249276D01*
X111218169Y-130249276D02*
X111256265Y-130173085D01*
X111256265Y-130173085D02*
X111294360Y-130134990D01*
X111294360Y-130134990D02*
X111370550Y-130096895D01*
X111370550Y-130096895D02*
X111561027Y-130096895D01*
X111561027Y-130096895D02*
X111675312Y-130134990D01*
X112018170Y-130896895D02*
X112018170Y-130096895D01*
X112018170Y-130096895D02*
X112208646Y-130096895D01*
X112208646Y-130096895D02*
X112322932Y-130134990D01*
X112322932Y-130134990D02*
X112399122Y-130211180D01*
X112399122Y-130211180D02*
X112437217Y-130287371D01*
X112437217Y-130287371D02*
X112475313Y-130439752D01*
X112475313Y-130439752D02*
X112475313Y-130554038D01*
X112475313Y-130554038D02*
X112437217Y-130706419D01*
X112437217Y-130706419D02*
X112399122Y-130782609D01*
X112399122Y-130782609D02*
X112322932Y-130858800D01*
X112322932Y-130858800D02*
X112208646Y-130896895D01*
X112208646Y-130896895D02*
X112018170Y-130896895D01*
X112780074Y-130668323D02*
X113161027Y-130668323D01*
X112703884Y-130896895D02*
X112970551Y-130096895D01*
X112970551Y-130096895D02*
X113237217Y-130896895D01*
X106141979Y-130096895D02*
X106408646Y-130896895D01*
X106408646Y-130896895D02*
X106675312Y-130096895D01*
X106941979Y-130896895D02*
X106941979Y-130096895D01*
X106941979Y-130096895D02*
X107132455Y-130096895D01*
X107132455Y-130096895D02*
X107246741Y-130134990D01*
X107246741Y-130134990D02*
X107322931Y-130211180D01*
X107322931Y-130211180D02*
X107361026Y-130287371D01*
X107361026Y-130287371D02*
X107399122Y-130439752D01*
X107399122Y-130439752D02*
X107399122Y-130554038D01*
X107399122Y-130554038D02*
X107361026Y-130706419D01*
X107361026Y-130706419D02*
X107322931Y-130782609D01*
X107322931Y-130782609D02*
X107246741Y-130858800D01*
X107246741Y-130858800D02*
X107132455Y-130896895D01*
X107132455Y-130896895D02*
X106941979Y-130896895D01*
X107741979Y-130896895D02*
X107741979Y-130096895D01*
X107741979Y-130096895D02*
X107932455Y-130096895D01*
X107932455Y-130096895D02*
X108046741Y-130134990D01*
X108046741Y-130134990D02*
X108122931Y-130211180D01*
X108122931Y-130211180D02*
X108161026Y-130287371D01*
X108161026Y-130287371D02*
X108199122Y-130439752D01*
X108199122Y-130439752D02*
X108199122Y-130554038D01*
X108199122Y-130554038D02*
X108161026Y-130706419D01*
X108161026Y-130706419D02*
X108122931Y-130782609D01*
X108122931Y-130782609D02*
X108046741Y-130858800D01*
X108046741Y-130858800D02*
X107932455Y-130896895D01*
X107932455Y-130896895D02*
X107741979Y-130896895D01*
X101675312Y-130134990D02*
X101599122Y-130096895D01*
X101599122Y-130096895D02*
X101484836Y-130096895D01*
X101484836Y-130096895D02*
X101370550Y-130134990D01*
X101370550Y-130134990D02*
X101294360Y-130211180D01*
X101294360Y-130211180D02*
X101256265Y-130287371D01*
X101256265Y-130287371D02*
X101218169Y-130439752D01*
X101218169Y-130439752D02*
X101218169Y-130554038D01*
X101218169Y-130554038D02*
X101256265Y-130706419D01*
X101256265Y-130706419D02*
X101294360Y-130782609D01*
X101294360Y-130782609D02*
X101370550Y-130858800D01*
X101370550Y-130858800D02*
X101484836Y-130896895D01*
X101484836Y-130896895D02*
X101561027Y-130896895D01*
X101561027Y-130896895D02*
X101675312Y-130858800D01*
X101675312Y-130858800D02*
X101713408Y-130820704D01*
X101713408Y-130820704D02*
X101713408Y-130554038D01*
X101713408Y-130554038D02*
X101561027Y-130554038D01*
X102056265Y-130896895D02*
X102056265Y-130096895D01*
X102056265Y-130096895D02*
X102513408Y-130896895D01*
X102513408Y-130896895D02*
X102513408Y-130096895D01*
X102894360Y-130896895D02*
X102894360Y-130096895D01*
X102894360Y-130096895D02*
X103084836Y-130096895D01*
X103084836Y-130096895D02*
X103199122Y-130134990D01*
X103199122Y-130134990D02*
X103275312Y-130211180D01*
X103275312Y-130211180D02*
X103313407Y-130287371D01*
X103313407Y-130287371D02*
X103351503Y-130439752D01*
X103351503Y-130439752D02*
X103351503Y-130554038D01*
X103351503Y-130554038D02*
X103313407Y-130706419D01*
X103313407Y-130706419D02*
X103275312Y-130782609D01*
X103275312Y-130782609D02*
X103199122Y-130858800D01*
X103199122Y-130858800D02*
X103084836Y-130896895D01*
X103084836Y-130896895D02*
X102894360Y-130896895D01*
X64303884Y-136372419D02*
X64303884Y-135372419D01*
X64303884Y-135372419D02*
X64541979Y-135372419D01*
X64541979Y-135372419D02*
X64684836Y-135420038D01*
X64684836Y-135420038D02*
X64780074Y-135515276D01*
X64780074Y-135515276D02*
X64827693Y-135610514D01*
X64827693Y-135610514D02*
X64875312Y-135800990D01*
X64875312Y-135800990D02*
X64875312Y-135943847D01*
X64875312Y-135943847D02*
X64827693Y-136134323D01*
X64827693Y-136134323D02*
X64780074Y-136229561D01*
X64780074Y-136229561D02*
X64684836Y-136324800D01*
X64684836Y-136324800D02*
X64541979Y-136372419D01*
X64541979Y-136372419D02*
X64303884Y-136372419D01*
X65684836Y-136324800D02*
X65589598Y-136372419D01*
X65589598Y-136372419D02*
X65399122Y-136372419D01*
X65399122Y-136372419D02*
X65303884Y-136324800D01*
X65303884Y-136324800D02*
X65256265Y-136229561D01*
X65256265Y-136229561D02*
X65256265Y-135848609D01*
X65256265Y-135848609D02*
X65303884Y-135753371D01*
X65303884Y-135753371D02*
X65399122Y-135705752D01*
X65399122Y-135705752D02*
X65589598Y-135705752D01*
X65589598Y-135705752D02*
X65684836Y-135753371D01*
X65684836Y-135753371D02*
X65732455Y-135848609D01*
X65732455Y-135848609D02*
X65732455Y-135943847D01*
X65732455Y-135943847D02*
X65256265Y-136039085D01*
X66113408Y-136324800D02*
X66208646Y-136372419D01*
X66208646Y-136372419D02*
X66399122Y-136372419D01*
X66399122Y-136372419D02*
X66494360Y-136324800D01*
X66494360Y-136324800D02*
X66541979Y-136229561D01*
X66541979Y-136229561D02*
X66541979Y-136181942D01*
X66541979Y-136181942D02*
X66494360Y-136086704D01*
X66494360Y-136086704D02*
X66399122Y-136039085D01*
X66399122Y-136039085D02*
X66256265Y-136039085D01*
X66256265Y-136039085D02*
X66161027Y-135991466D01*
X66161027Y-135991466D02*
X66113408Y-135896228D01*
X66113408Y-135896228D02*
X66113408Y-135848609D01*
X66113408Y-135848609D02*
X66161027Y-135753371D01*
X66161027Y-135753371D02*
X66256265Y-135705752D01*
X66256265Y-135705752D02*
X66399122Y-135705752D01*
X66399122Y-135705752D02*
X66494360Y-135753371D01*
X66970551Y-136372419D02*
X66970551Y-135705752D01*
X66970551Y-135372419D02*
X66922932Y-135420038D01*
X66922932Y-135420038D02*
X66970551Y-135467657D01*
X66970551Y-135467657D02*
X67018170Y-135420038D01*
X67018170Y-135420038D02*
X66970551Y-135372419D01*
X66970551Y-135372419D02*
X66970551Y-135467657D01*
X67875312Y-135705752D02*
X67875312Y-136515276D01*
X67875312Y-136515276D02*
X67827693Y-136610514D01*
X67827693Y-136610514D02*
X67780074Y-136658133D01*
X67780074Y-136658133D02*
X67684836Y-136705752D01*
X67684836Y-136705752D02*
X67541979Y-136705752D01*
X67541979Y-136705752D02*
X67446741Y-136658133D01*
X67875312Y-136324800D02*
X67780074Y-136372419D01*
X67780074Y-136372419D02*
X67589598Y-136372419D01*
X67589598Y-136372419D02*
X67494360Y-136324800D01*
X67494360Y-136324800D02*
X67446741Y-136277180D01*
X67446741Y-136277180D02*
X67399122Y-136181942D01*
X67399122Y-136181942D02*
X67399122Y-135896228D01*
X67399122Y-135896228D02*
X67446741Y-135800990D01*
X67446741Y-135800990D02*
X67494360Y-135753371D01*
X67494360Y-135753371D02*
X67589598Y-135705752D01*
X67589598Y-135705752D02*
X67780074Y-135705752D01*
X67780074Y-135705752D02*
X67875312Y-135753371D01*
X68351503Y-135705752D02*
X68351503Y-136372419D01*
X68351503Y-135800990D02*
X68399122Y-135753371D01*
X68399122Y-135753371D02*
X68494360Y-135705752D01*
X68494360Y-135705752D02*
X68637217Y-135705752D01*
X68637217Y-135705752D02*
X68732455Y-135753371D01*
X68732455Y-135753371D02*
X68780074Y-135848609D01*
X68780074Y-135848609D02*
X68780074Y-136372419D01*
X69637217Y-136324800D02*
X69541979Y-136372419D01*
X69541979Y-136372419D02*
X69351503Y-136372419D01*
X69351503Y-136372419D02*
X69256265Y-136324800D01*
X69256265Y-136324800D02*
X69208646Y-136229561D01*
X69208646Y-136229561D02*
X69208646Y-135848609D01*
X69208646Y-135848609D02*
X69256265Y-135753371D01*
X69256265Y-135753371D02*
X69351503Y-135705752D01*
X69351503Y-135705752D02*
X69541979Y-135705752D01*
X69541979Y-135705752D02*
X69637217Y-135753371D01*
X69637217Y-135753371D02*
X69684836Y-135848609D01*
X69684836Y-135848609D02*
X69684836Y-135943847D01*
X69684836Y-135943847D02*
X69208646Y-136039085D01*
X70541979Y-136372419D02*
X70541979Y-135372419D01*
X70541979Y-136324800D02*
X70446741Y-136372419D01*
X70446741Y-136372419D02*
X70256265Y-136372419D01*
X70256265Y-136372419D02*
X70161027Y-136324800D01*
X70161027Y-136324800D02*
X70113408Y-136277180D01*
X70113408Y-136277180D02*
X70065789Y-136181942D01*
X70065789Y-136181942D02*
X70065789Y-135896228D01*
X70065789Y-135896228D02*
X70113408Y-135800990D01*
X70113408Y-135800990D02*
X70161027Y-135753371D01*
X70161027Y-135753371D02*
X70256265Y-135705752D01*
X70256265Y-135705752D02*
X70446741Y-135705752D01*
X70446741Y-135705752D02*
X70541979Y-135753371D01*
X71780075Y-136372419D02*
X71780075Y-135372419D01*
X71780075Y-135753371D02*
X71875313Y-135705752D01*
X71875313Y-135705752D02*
X72065789Y-135705752D01*
X72065789Y-135705752D02*
X72161027Y-135753371D01*
X72161027Y-135753371D02*
X72208646Y-135800990D01*
X72208646Y-135800990D02*
X72256265Y-135896228D01*
X72256265Y-135896228D02*
X72256265Y-136181942D01*
X72256265Y-136181942D02*
X72208646Y-136277180D01*
X72208646Y-136277180D02*
X72161027Y-136324800D01*
X72161027Y-136324800D02*
X72065789Y-136372419D01*
X72065789Y-136372419D02*
X71875313Y-136372419D01*
X71875313Y-136372419D02*
X71780075Y-136324800D01*
X72589599Y-135705752D02*
X72827694Y-136372419D01*
X73065789Y-135705752D02*
X72827694Y-136372419D01*
X72827694Y-136372419D02*
X72732456Y-136610514D01*
X72732456Y-136610514D02*
X72684837Y-136658133D01*
X72684837Y-136658133D02*
X72589599Y-136705752D01*
X74161028Y-136324800D02*
X74303885Y-136372419D01*
X74303885Y-136372419D02*
X74541980Y-136372419D01*
X74541980Y-136372419D02*
X74637218Y-136324800D01*
X74637218Y-136324800D02*
X74684837Y-136277180D01*
X74684837Y-136277180D02*
X74732456Y-136181942D01*
X74732456Y-136181942D02*
X74732456Y-136086704D01*
X74732456Y-136086704D02*
X74684837Y-135991466D01*
X74684837Y-135991466D02*
X74637218Y-135943847D01*
X74637218Y-135943847D02*
X74541980Y-135896228D01*
X74541980Y-135896228D02*
X74351504Y-135848609D01*
X74351504Y-135848609D02*
X74256266Y-135800990D01*
X74256266Y-135800990D02*
X74208647Y-135753371D01*
X74208647Y-135753371D02*
X74161028Y-135658133D01*
X74161028Y-135658133D02*
X74161028Y-135562895D01*
X74161028Y-135562895D02*
X74208647Y-135467657D01*
X74208647Y-135467657D02*
X74256266Y-135420038D01*
X74256266Y-135420038D02*
X74351504Y-135372419D01*
X74351504Y-135372419D02*
X74589599Y-135372419D01*
X74589599Y-135372419D02*
X74732456Y-135420038D01*
X75018171Y-135705752D02*
X75399123Y-135705752D01*
X75161028Y-135372419D02*
X75161028Y-136229561D01*
X75161028Y-136229561D02*
X75208647Y-136324800D01*
X75208647Y-136324800D02*
X75303885Y-136372419D01*
X75303885Y-136372419D02*
X75399123Y-136372419D01*
X76113409Y-136324800D02*
X76018171Y-136372419D01*
X76018171Y-136372419D02*
X75827695Y-136372419D01*
X75827695Y-136372419D02*
X75732457Y-136324800D01*
X75732457Y-136324800D02*
X75684838Y-136229561D01*
X75684838Y-136229561D02*
X75684838Y-135848609D01*
X75684838Y-135848609D02*
X75732457Y-135753371D01*
X75732457Y-135753371D02*
X75827695Y-135705752D01*
X75827695Y-135705752D02*
X76018171Y-135705752D01*
X76018171Y-135705752D02*
X76113409Y-135753371D01*
X76113409Y-135753371D02*
X76161028Y-135848609D01*
X76161028Y-135848609D02*
X76161028Y-135943847D01*
X76161028Y-135943847D02*
X75684838Y-136039085D01*
X76494362Y-135705752D02*
X76732457Y-136372419D01*
X76732457Y-136372419D02*
X76970552Y-135705752D01*
X77732457Y-136324800D02*
X77637219Y-136372419D01*
X77637219Y-136372419D02*
X77446743Y-136372419D01*
X77446743Y-136372419D02*
X77351505Y-136324800D01*
X77351505Y-136324800D02*
X77303886Y-136229561D01*
X77303886Y-136229561D02*
X77303886Y-135848609D01*
X77303886Y-135848609D02*
X77351505Y-135753371D01*
X77351505Y-135753371D02*
X77446743Y-135705752D01*
X77446743Y-135705752D02*
X77637219Y-135705752D01*
X77637219Y-135705752D02*
X77732457Y-135753371D01*
X77732457Y-135753371D02*
X77780076Y-135848609D01*
X77780076Y-135848609D02*
X77780076Y-135943847D01*
X77780076Y-135943847D02*
X77303886Y-136039085D01*
X80446744Y-135467657D02*
X80494363Y-135420038D01*
X80494363Y-135420038D02*
X80589601Y-135372419D01*
X80589601Y-135372419D02*
X80827696Y-135372419D01*
X80827696Y-135372419D02*
X80922934Y-135420038D01*
X80922934Y-135420038D02*
X80970553Y-135467657D01*
X80970553Y-135467657D02*
X81018172Y-135562895D01*
X81018172Y-135562895D02*
X81018172Y-135658133D01*
X81018172Y-135658133D02*
X80970553Y-135800990D01*
X80970553Y-135800990D02*
X80399125Y-136372419D01*
X80399125Y-136372419D02*
X81018172Y-136372419D01*
X81637220Y-135372419D02*
X81732458Y-135372419D01*
X81732458Y-135372419D02*
X81827696Y-135420038D01*
X81827696Y-135420038D02*
X81875315Y-135467657D01*
X81875315Y-135467657D02*
X81922934Y-135562895D01*
X81922934Y-135562895D02*
X81970553Y-135753371D01*
X81970553Y-135753371D02*
X81970553Y-135991466D01*
X81970553Y-135991466D02*
X81922934Y-136181942D01*
X81922934Y-136181942D02*
X81875315Y-136277180D01*
X81875315Y-136277180D02*
X81827696Y-136324800D01*
X81827696Y-136324800D02*
X81732458Y-136372419D01*
X81732458Y-136372419D02*
X81637220Y-136372419D01*
X81637220Y-136372419D02*
X81541982Y-136324800D01*
X81541982Y-136324800D02*
X81494363Y-136277180D01*
X81494363Y-136277180D02*
X81446744Y-136181942D01*
X81446744Y-136181942D02*
X81399125Y-135991466D01*
X81399125Y-135991466D02*
X81399125Y-135753371D01*
X81399125Y-135753371D02*
X81446744Y-135562895D01*
X81446744Y-135562895D02*
X81494363Y-135467657D01*
X81494363Y-135467657D02*
X81541982Y-135420038D01*
X81541982Y-135420038D02*
X81637220Y-135372419D01*
X82351506Y-135467657D02*
X82399125Y-135420038D01*
X82399125Y-135420038D02*
X82494363Y-135372419D01*
X82494363Y-135372419D02*
X82732458Y-135372419D01*
X82732458Y-135372419D02*
X82827696Y-135420038D01*
X82827696Y-135420038D02*
X82875315Y-135467657D01*
X82875315Y-135467657D02*
X82922934Y-135562895D01*
X82922934Y-135562895D02*
X82922934Y-135658133D01*
X82922934Y-135658133D02*
X82875315Y-135800990D01*
X82875315Y-135800990D02*
X82303887Y-136372419D01*
X82303887Y-136372419D02*
X82922934Y-136372419D01*
X83827696Y-135372419D02*
X83351506Y-135372419D01*
X83351506Y-135372419D02*
X83303887Y-135848609D01*
X83303887Y-135848609D02*
X83351506Y-135800990D01*
X83351506Y-135800990D02*
X83446744Y-135753371D01*
X83446744Y-135753371D02*
X83684839Y-135753371D01*
X83684839Y-135753371D02*
X83780077Y-135800990D01*
X83780077Y-135800990D02*
X83827696Y-135848609D01*
X83827696Y-135848609D02*
X83875315Y-135943847D01*
X83875315Y-135943847D02*
X83875315Y-136181942D01*
X83875315Y-136181942D02*
X83827696Y-136277180D01*
X83827696Y-136277180D02*
X83780077Y-136324800D01*
X83780077Y-136324800D02*
X83684839Y-136372419D01*
X83684839Y-136372419D02*
X83446744Y-136372419D01*
X83446744Y-136372419D02*
X83351506Y-136324800D01*
X83351506Y-136324800D02*
X83303887Y-136277180D01*
X85018172Y-135324800D02*
X84161030Y-136610514D01*
X85541982Y-135372419D02*
X85637220Y-135372419D01*
X85637220Y-135372419D02*
X85732458Y-135420038D01*
X85732458Y-135420038D02*
X85780077Y-135467657D01*
X85780077Y-135467657D02*
X85827696Y-135562895D01*
X85827696Y-135562895D02*
X85875315Y-135753371D01*
X85875315Y-135753371D02*
X85875315Y-135991466D01*
X85875315Y-135991466D02*
X85827696Y-136181942D01*
X85827696Y-136181942D02*
X85780077Y-136277180D01*
X85780077Y-136277180D02*
X85732458Y-136324800D01*
X85732458Y-136324800D02*
X85637220Y-136372419D01*
X85637220Y-136372419D02*
X85541982Y-136372419D01*
X85541982Y-136372419D02*
X85446744Y-136324800D01*
X85446744Y-136324800D02*
X85399125Y-136277180D01*
X85399125Y-136277180D02*
X85351506Y-136181942D01*
X85351506Y-136181942D02*
X85303887Y-135991466D01*
X85303887Y-135991466D02*
X85303887Y-135753371D01*
X85303887Y-135753371D02*
X85351506Y-135562895D01*
X85351506Y-135562895D02*
X85399125Y-135467657D01*
X85399125Y-135467657D02*
X85446744Y-135420038D01*
X85446744Y-135420038D02*
X85541982Y-135372419D01*
X86208649Y-135372419D02*
X86875315Y-135372419D01*
X86875315Y-135372419D02*
X86446744Y-136372419D01*
X87970553Y-135324800D02*
X87113411Y-136610514D01*
X88256268Y-135467657D02*
X88303887Y-135420038D01*
X88303887Y-135420038D02*
X88399125Y-135372419D01*
X88399125Y-135372419D02*
X88637220Y-135372419D01*
X88637220Y-135372419D02*
X88732458Y-135420038D01*
X88732458Y-135420038D02*
X88780077Y-135467657D01*
X88780077Y-135467657D02*
X88827696Y-135562895D01*
X88827696Y-135562895D02*
X88827696Y-135658133D01*
X88827696Y-135658133D02*
X88780077Y-135800990D01*
X88780077Y-135800990D02*
X88208649Y-136372419D01*
X88208649Y-136372419D02*
X88827696Y-136372419D01*
X89732458Y-135372419D02*
X89256268Y-135372419D01*
X89256268Y-135372419D02*
X89208649Y-135848609D01*
X89208649Y-135848609D02*
X89256268Y-135800990D01*
X89256268Y-135800990D02*
X89351506Y-135753371D01*
X89351506Y-135753371D02*
X89589601Y-135753371D01*
X89589601Y-135753371D02*
X89684839Y-135800990D01*
X89684839Y-135800990D02*
X89732458Y-135848609D01*
X89732458Y-135848609D02*
X89780077Y-135943847D01*
X89780077Y-135943847D02*
X89780077Y-136181942D01*
X89780077Y-136181942D02*
X89732458Y-136277180D01*
X89732458Y-136277180D02*
X89684839Y-136324800D01*
X89684839Y-136324800D02*
X89589601Y-136372419D01*
X89589601Y-136372419D02*
X89351506Y-136372419D01*
X89351506Y-136372419D02*
X89256268Y-136324800D01*
X89256268Y-136324800D02*
X89208649Y-136277180D01*
D11*
X78675281Y-52613357D02*
X77675281Y-51184785D01*
X76960995Y-52613357D02*
X76960995Y-49613357D01*
X76960995Y-49613357D02*
X78103852Y-49613357D01*
X78103852Y-49613357D02*
X78389567Y-49756214D01*
X78389567Y-49756214D02*
X78532424Y-49899071D01*
X78532424Y-49899071D02*
X78675281Y-50184785D01*
X78675281Y-50184785D02*
X78675281Y-50613357D01*
X78675281Y-50613357D02*
X78532424Y-50899071D01*
X78532424Y-50899071D02*
X78389567Y-51041928D01*
X78389567Y-51041928D02*
X78103852Y-51184785D01*
X78103852Y-51184785D02*
X76960995Y-51184785D01*
X81103852Y-52470500D02*
X80818138Y-52613357D01*
X80818138Y-52613357D02*
X80246710Y-52613357D01*
X80246710Y-52613357D02*
X79960995Y-52470500D01*
X79960995Y-52470500D02*
X79818138Y-52184785D01*
X79818138Y-52184785D02*
X79818138Y-51041928D01*
X79818138Y-51041928D02*
X79960995Y-50756214D01*
X79960995Y-50756214D02*
X80246710Y-50613357D01*
X80246710Y-50613357D02*
X80818138Y-50613357D01*
X80818138Y-50613357D02*
X81103852Y-50756214D01*
X81103852Y-50756214D02*
X81246710Y-51041928D01*
X81246710Y-51041928D02*
X81246710Y-51327642D01*
X81246710Y-51327642D02*
X79818138Y-51613357D01*
X82389567Y-52470500D02*
X82675281Y-52613357D01*
X82675281Y-52613357D02*
X83246710Y-52613357D01*
X83246710Y-52613357D02*
X83532424Y-52470500D01*
X83532424Y-52470500D02*
X83675281Y-52184785D01*
X83675281Y-52184785D02*
X83675281Y-52041928D01*
X83675281Y-52041928D02*
X83532424Y-51756214D01*
X83532424Y-51756214D02*
X83246710Y-51613357D01*
X83246710Y-51613357D02*
X82818139Y-51613357D01*
X82818139Y-51613357D02*
X82532424Y-51470500D01*
X82532424Y-51470500D02*
X82389567Y-51184785D01*
X82389567Y-51184785D02*
X82389567Y-51041928D01*
X82389567Y-51041928D02*
X82532424Y-50756214D01*
X82532424Y-50756214D02*
X82818139Y-50613357D01*
X82818139Y-50613357D02*
X83246710Y-50613357D01*
X83246710Y-50613357D02*
X83532424Y-50756214D01*
X85389567Y-52613357D02*
X85103852Y-52470500D01*
X85103852Y-52470500D02*
X84960995Y-52327642D01*
X84960995Y-52327642D02*
X84818138Y-52041928D01*
X84818138Y-52041928D02*
X84818138Y-51184785D01*
X84818138Y-51184785D02*
X84960995Y-50899071D01*
X84960995Y-50899071D02*
X85103852Y-50756214D01*
X85103852Y-50756214D02*
X85389567Y-50613357D01*
X85389567Y-50613357D02*
X85818138Y-50613357D01*
X85818138Y-50613357D02*
X86103852Y-50756214D01*
X86103852Y-50756214D02*
X86246710Y-50899071D01*
X86246710Y-50899071D02*
X86389567Y-51184785D01*
X86389567Y-51184785D02*
X86389567Y-52041928D01*
X86389567Y-52041928D02*
X86246710Y-52327642D01*
X86246710Y-52327642D02*
X86103852Y-52470500D01*
X86103852Y-52470500D02*
X85818138Y-52613357D01*
X85818138Y-52613357D02*
X85389567Y-52613357D01*
X87675281Y-50613357D02*
X87675281Y-52613357D01*
X87675281Y-50899071D02*
X87818138Y-50756214D01*
X87818138Y-50756214D02*
X88103853Y-50613357D01*
X88103853Y-50613357D02*
X88532424Y-50613357D01*
X88532424Y-50613357D02*
X88818138Y-50756214D01*
X88818138Y-50756214D02*
X88960996Y-51041928D01*
X88960996Y-51041928D02*
X88960996Y-52613357D01*
X91532424Y-52470500D02*
X91246710Y-52613357D01*
X91246710Y-52613357D02*
X90675282Y-52613357D01*
X90675282Y-52613357D02*
X90389567Y-52470500D01*
X90389567Y-52470500D02*
X90246710Y-52184785D01*
X90246710Y-52184785D02*
X90246710Y-51041928D01*
X90246710Y-51041928D02*
X90389567Y-50756214D01*
X90389567Y-50756214D02*
X90675282Y-50613357D01*
X90675282Y-50613357D02*
X91246710Y-50613357D01*
X91246710Y-50613357D02*
X91532424Y-50756214D01*
X91532424Y-50756214D02*
X91675282Y-51041928D01*
X91675282Y-51041928D02*
X91675282Y-51327642D01*
X91675282Y-51327642D02*
X90246710Y-51613357D01*
X92532425Y-50613357D02*
X93675282Y-50613357D01*
X92960996Y-49613357D02*
X92960996Y-52184785D01*
X92960996Y-52184785D02*
X93103853Y-52470500D01*
X93103853Y-52470500D02*
X93389568Y-52613357D01*
X93389568Y-52613357D02*
X93675282Y-52613357D01*
X96818139Y-52470500D02*
X97246711Y-52613357D01*
X97246711Y-52613357D02*
X97960996Y-52613357D01*
X97960996Y-52613357D02*
X98246711Y-52470500D01*
X98246711Y-52470500D02*
X98389568Y-52327642D01*
X98389568Y-52327642D02*
X98532425Y-52041928D01*
X98532425Y-52041928D02*
X98532425Y-51756214D01*
X98532425Y-51756214D02*
X98389568Y-51470500D01*
X98389568Y-51470500D02*
X98246711Y-51327642D01*
X98246711Y-51327642D02*
X97960996Y-51184785D01*
X97960996Y-51184785D02*
X97389568Y-51041928D01*
X97389568Y-51041928D02*
X97103853Y-50899071D01*
X97103853Y-50899071D02*
X96960996Y-50756214D01*
X96960996Y-50756214D02*
X96818139Y-50470500D01*
X96818139Y-50470500D02*
X96818139Y-50184785D01*
X96818139Y-50184785D02*
X96960996Y-49899071D01*
X96960996Y-49899071D02*
X97103853Y-49756214D01*
X97103853Y-49756214D02*
X97389568Y-49613357D01*
X97389568Y-49613357D02*
X98103853Y-49613357D01*
X98103853Y-49613357D02*
X98532425Y-49756214D01*
X100960996Y-52470500D02*
X100675282Y-52613357D01*
X100675282Y-52613357D02*
X100103854Y-52613357D01*
X100103854Y-52613357D02*
X99818139Y-52470500D01*
X99818139Y-52470500D02*
X99675282Y-52184785D01*
X99675282Y-52184785D02*
X99675282Y-51041928D01*
X99675282Y-51041928D02*
X99818139Y-50756214D01*
X99818139Y-50756214D02*
X100103854Y-50613357D01*
X100103854Y-50613357D02*
X100675282Y-50613357D01*
X100675282Y-50613357D02*
X100960996Y-50756214D01*
X100960996Y-50756214D02*
X101103854Y-51041928D01*
X101103854Y-51041928D02*
X101103854Y-51327642D01*
X101103854Y-51327642D02*
X99675282Y-51613357D01*
X102389568Y-50613357D02*
X102389568Y-52613357D01*
X102389568Y-50899071D02*
X102532425Y-50756214D01*
X102532425Y-50756214D02*
X102818140Y-50613357D01*
X102818140Y-50613357D02*
X103246711Y-50613357D01*
X103246711Y-50613357D02*
X103532425Y-50756214D01*
X103532425Y-50756214D02*
X103675283Y-51041928D01*
X103675283Y-51041928D02*
X103675283Y-52613357D01*
X104960997Y-52470500D02*
X105246711Y-52613357D01*
X105246711Y-52613357D02*
X105818140Y-52613357D01*
X105818140Y-52613357D02*
X106103854Y-52470500D01*
X106103854Y-52470500D02*
X106246711Y-52184785D01*
X106246711Y-52184785D02*
X106246711Y-52041928D01*
X106246711Y-52041928D02*
X106103854Y-51756214D01*
X106103854Y-51756214D02*
X105818140Y-51613357D01*
X105818140Y-51613357D02*
X105389569Y-51613357D01*
X105389569Y-51613357D02*
X105103854Y-51470500D01*
X105103854Y-51470500D02*
X104960997Y-51184785D01*
X104960997Y-51184785D02*
X104960997Y-51041928D01*
X104960997Y-51041928D02*
X105103854Y-50756214D01*
X105103854Y-50756214D02*
X105389569Y-50613357D01*
X105389569Y-50613357D02*
X105818140Y-50613357D01*
X105818140Y-50613357D02*
X106103854Y-50756214D01*
X107960997Y-52613357D02*
X107675282Y-52470500D01*
X107675282Y-52470500D02*
X107532425Y-52327642D01*
X107532425Y-52327642D02*
X107389568Y-52041928D01*
X107389568Y-52041928D02*
X107389568Y-51184785D01*
X107389568Y-51184785D02*
X107532425Y-50899071D01*
X107532425Y-50899071D02*
X107675282Y-50756214D01*
X107675282Y-50756214D02*
X107960997Y-50613357D01*
X107960997Y-50613357D02*
X108389568Y-50613357D01*
X108389568Y-50613357D02*
X108675282Y-50756214D01*
X108675282Y-50756214D02*
X108818140Y-50899071D01*
X108818140Y-50899071D02*
X108960997Y-51184785D01*
X108960997Y-51184785D02*
X108960997Y-52041928D01*
X108960997Y-52041928D02*
X108818140Y-52327642D01*
X108818140Y-52327642D02*
X108675282Y-52470500D01*
X108675282Y-52470500D02*
X108389568Y-52613357D01*
X108389568Y-52613357D02*
X107960997Y-52613357D01*
X110246711Y-52613357D02*
X110246711Y-50613357D01*
X110246711Y-51184785D02*
X110389568Y-50899071D01*
X110389568Y-50899071D02*
X110532426Y-50756214D01*
X110532426Y-50756214D02*
X110818140Y-50613357D01*
X110818140Y-50613357D02*
X111103854Y-50613357D01*
D12*
X53454819Y-84642856D02*
X52454819Y-84642856D01*
X52454819Y-84642856D02*
X52454819Y-84261904D01*
X52454819Y-84261904D02*
X52502438Y-84166666D01*
X52502438Y-84166666D02*
X52550057Y-84119047D01*
X52550057Y-84119047D02*
X52645295Y-84071428D01*
X52645295Y-84071428D02*
X52788152Y-84071428D01*
X52788152Y-84071428D02*
X52883390Y-84119047D01*
X52883390Y-84119047D02*
X52931009Y-84166666D01*
X52931009Y-84166666D02*
X52978628Y-84261904D01*
X52978628Y-84261904D02*
X52978628Y-84642856D01*
X53454819Y-83642856D02*
X52788152Y-83642856D01*
X52454819Y-83642856D02*
X52502438Y-83690475D01*
X52502438Y-83690475D02*
X52550057Y-83642856D01*
X52550057Y-83642856D02*
X52502438Y-83595237D01*
X52502438Y-83595237D02*
X52454819Y-83642856D01*
X52454819Y-83642856D02*
X52550057Y-83642856D01*
X53407200Y-82785714D02*
X53454819Y-82880952D01*
X53454819Y-82880952D02*
X53454819Y-83071428D01*
X53454819Y-83071428D02*
X53407200Y-83166666D01*
X53407200Y-83166666D02*
X53311961Y-83214285D01*
X53311961Y-83214285D02*
X52931009Y-83214285D01*
X52931009Y-83214285D02*
X52835771Y-83166666D01*
X52835771Y-83166666D02*
X52788152Y-83071428D01*
X52788152Y-83071428D02*
X52788152Y-82880952D01*
X52788152Y-82880952D02*
X52835771Y-82785714D01*
X52835771Y-82785714D02*
X52931009Y-82738095D01*
X52931009Y-82738095D02*
X53026247Y-82738095D01*
X53026247Y-82738095D02*
X53121485Y-83214285D01*
X52788152Y-82404761D02*
X52788152Y-81880952D01*
X52788152Y-81880952D02*
X53454819Y-82404761D01*
X53454819Y-82404761D02*
X53454819Y-81880952D01*
X53454819Y-81357142D02*
X53407200Y-81452380D01*
X53407200Y-81452380D02*
X53359580Y-81499999D01*
X53359580Y-81499999D02*
X53264342Y-81547618D01*
X53264342Y-81547618D02*
X52978628Y-81547618D01*
X52978628Y-81547618D02*
X52883390Y-81499999D01*
X52883390Y-81499999D02*
X52835771Y-81452380D01*
X52835771Y-81452380D02*
X52788152Y-81357142D01*
X52788152Y-81357142D02*
X52788152Y-81214285D01*
X52788152Y-81214285D02*
X52835771Y-81119047D01*
X52835771Y-81119047D02*
X52883390Y-81071428D01*
X52883390Y-81071428D02*
X52978628Y-81023809D01*
X52978628Y-81023809D02*
X53264342Y-81023809D01*
X53264342Y-81023809D02*
X53359580Y-81071428D01*
X53359580Y-81071428D02*
X53407200Y-81119047D01*
X53407200Y-81119047D02*
X53454819Y-81214285D01*
X53454819Y-81214285D02*
X53454819Y-81357142D01*
X52454819Y-79928570D02*
X52454819Y-79309523D01*
X52454819Y-79309523D02*
X52835771Y-79642856D01*
X52835771Y-79642856D02*
X52835771Y-79499999D01*
X52835771Y-79499999D02*
X52883390Y-79404761D01*
X52883390Y-79404761D02*
X52931009Y-79357142D01*
X52931009Y-79357142D02*
X53026247Y-79309523D01*
X53026247Y-79309523D02*
X53264342Y-79309523D01*
X53264342Y-79309523D02*
X53359580Y-79357142D01*
X53359580Y-79357142D02*
X53407200Y-79404761D01*
X53407200Y-79404761D02*
X53454819Y-79499999D01*
X53454819Y-79499999D02*
X53454819Y-79785713D01*
X53454819Y-79785713D02*
X53407200Y-79880951D01*
X53407200Y-79880951D02*
X53359580Y-79928570D01*
X53454819Y-104642856D02*
X52454819Y-104642856D01*
X52454819Y-104642856D02*
X52454819Y-104261904D01*
X52454819Y-104261904D02*
X52502438Y-104166666D01*
X52502438Y-104166666D02*
X52550057Y-104119047D01*
X52550057Y-104119047D02*
X52645295Y-104071428D01*
X52645295Y-104071428D02*
X52788152Y-104071428D01*
X52788152Y-104071428D02*
X52883390Y-104119047D01*
X52883390Y-104119047D02*
X52931009Y-104166666D01*
X52931009Y-104166666D02*
X52978628Y-104261904D01*
X52978628Y-104261904D02*
X52978628Y-104642856D01*
X53454819Y-103642856D02*
X52788152Y-103642856D01*
X52454819Y-103642856D02*
X52502438Y-103690475D01*
X52502438Y-103690475D02*
X52550057Y-103642856D01*
X52550057Y-103642856D02*
X52502438Y-103595237D01*
X52502438Y-103595237D02*
X52454819Y-103642856D01*
X52454819Y-103642856D02*
X52550057Y-103642856D01*
X53407200Y-102785714D02*
X53454819Y-102880952D01*
X53454819Y-102880952D02*
X53454819Y-103071428D01*
X53454819Y-103071428D02*
X53407200Y-103166666D01*
X53407200Y-103166666D02*
X53311961Y-103214285D01*
X53311961Y-103214285D02*
X52931009Y-103214285D01*
X52931009Y-103214285D02*
X52835771Y-103166666D01*
X52835771Y-103166666D02*
X52788152Y-103071428D01*
X52788152Y-103071428D02*
X52788152Y-102880952D01*
X52788152Y-102880952D02*
X52835771Y-102785714D01*
X52835771Y-102785714D02*
X52931009Y-102738095D01*
X52931009Y-102738095D02*
X53026247Y-102738095D01*
X53026247Y-102738095D02*
X53121485Y-103214285D01*
X52788152Y-102404761D02*
X52788152Y-101880952D01*
X52788152Y-101880952D02*
X53454819Y-102404761D01*
X53454819Y-102404761D02*
X53454819Y-101880952D01*
X53454819Y-101357142D02*
X53407200Y-101452380D01*
X53407200Y-101452380D02*
X53359580Y-101499999D01*
X53359580Y-101499999D02*
X53264342Y-101547618D01*
X53264342Y-101547618D02*
X52978628Y-101547618D01*
X52978628Y-101547618D02*
X52883390Y-101499999D01*
X52883390Y-101499999D02*
X52835771Y-101452380D01*
X52835771Y-101452380D02*
X52788152Y-101357142D01*
X52788152Y-101357142D02*
X52788152Y-101214285D01*
X52788152Y-101214285D02*
X52835771Y-101119047D01*
X52835771Y-101119047D02*
X52883390Y-101071428D01*
X52883390Y-101071428D02*
X52978628Y-101023809D01*
X52978628Y-101023809D02*
X53264342Y-101023809D01*
X53264342Y-101023809D02*
X53359580Y-101071428D01*
X53359580Y-101071428D02*
X53407200Y-101119047D01*
X53407200Y-101119047D02*
X53454819Y-101214285D01*
X53454819Y-101214285D02*
X53454819Y-101357142D01*
X52550057Y-99880951D02*
X52502438Y-99833332D01*
X52502438Y-99833332D02*
X52454819Y-99738094D01*
X52454819Y-99738094D02*
X52454819Y-99499999D01*
X52454819Y-99499999D02*
X52502438Y-99404761D01*
X52502438Y-99404761D02*
X52550057Y-99357142D01*
X52550057Y-99357142D02*
X52645295Y-99309523D01*
X52645295Y-99309523D02*
X52740533Y-99309523D01*
X52740533Y-99309523D02*
X52883390Y-99357142D01*
X52883390Y-99357142D02*
X53454819Y-99928570D01*
X53454819Y-99928570D02*
X53454819Y-99309523D01*
X53454819Y-64642856D02*
X52454819Y-64642856D01*
X52454819Y-64642856D02*
X52454819Y-64261904D01*
X52454819Y-64261904D02*
X52502438Y-64166666D01*
X52502438Y-64166666D02*
X52550057Y-64119047D01*
X52550057Y-64119047D02*
X52645295Y-64071428D01*
X52645295Y-64071428D02*
X52788152Y-64071428D01*
X52788152Y-64071428D02*
X52883390Y-64119047D01*
X52883390Y-64119047D02*
X52931009Y-64166666D01*
X52931009Y-64166666D02*
X52978628Y-64261904D01*
X52978628Y-64261904D02*
X52978628Y-64642856D01*
X53454819Y-63642856D02*
X52788152Y-63642856D01*
X52454819Y-63642856D02*
X52502438Y-63690475D01*
X52502438Y-63690475D02*
X52550057Y-63642856D01*
X52550057Y-63642856D02*
X52502438Y-63595237D01*
X52502438Y-63595237D02*
X52454819Y-63642856D01*
X52454819Y-63642856D02*
X52550057Y-63642856D01*
X53407200Y-62785714D02*
X53454819Y-62880952D01*
X53454819Y-62880952D02*
X53454819Y-63071428D01*
X53454819Y-63071428D02*
X53407200Y-63166666D01*
X53407200Y-63166666D02*
X53311961Y-63214285D01*
X53311961Y-63214285D02*
X52931009Y-63214285D01*
X52931009Y-63214285D02*
X52835771Y-63166666D01*
X52835771Y-63166666D02*
X52788152Y-63071428D01*
X52788152Y-63071428D02*
X52788152Y-62880952D01*
X52788152Y-62880952D02*
X52835771Y-62785714D01*
X52835771Y-62785714D02*
X52931009Y-62738095D01*
X52931009Y-62738095D02*
X53026247Y-62738095D01*
X53026247Y-62738095D02*
X53121485Y-63214285D01*
X52788152Y-62404761D02*
X52788152Y-61880952D01*
X52788152Y-61880952D02*
X53454819Y-62404761D01*
X53454819Y-62404761D02*
X53454819Y-61880952D01*
X53454819Y-61357142D02*
X53407200Y-61452380D01*
X53407200Y-61452380D02*
X53359580Y-61499999D01*
X53359580Y-61499999D02*
X53264342Y-61547618D01*
X53264342Y-61547618D02*
X52978628Y-61547618D01*
X52978628Y-61547618D02*
X52883390Y-61499999D01*
X52883390Y-61499999D02*
X52835771Y-61452380D01*
X52835771Y-61452380D02*
X52788152Y-61357142D01*
X52788152Y-61357142D02*
X52788152Y-61214285D01*
X52788152Y-61214285D02*
X52835771Y-61119047D01*
X52835771Y-61119047D02*
X52883390Y-61071428D01*
X52883390Y-61071428D02*
X52978628Y-61023809D01*
X52978628Y-61023809D02*
X53264342Y-61023809D01*
X53264342Y-61023809D02*
X53359580Y-61071428D01*
X53359580Y-61071428D02*
X53407200Y-61119047D01*
X53407200Y-61119047D02*
X53454819Y-61214285D01*
X53454819Y-61214285D02*
X53454819Y-61357142D01*
X52788152Y-59404761D02*
X53454819Y-59404761D01*
X52407200Y-59642856D02*
X53121485Y-59880951D01*
X53121485Y-59880951D02*
X53121485Y-59261904D01*
X53454819Y-124182856D02*
X52454819Y-124182856D01*
X52454819Y-124182856D02*
X52454819Y-123801904D01*
X52454819Y-123801904D02*
X52502438Y-123706666D01*
X52502438Y-123706666D02*
X52550057Y-123659047D01*
X52550057Y-123659047D02*
X52645295Y-123611428D01*
X52645295Y-123611428D02*
X52788152Y-123611428D01*
X52788152Y-123611428D02*
X52883390Y-123659047D01*
X52883390Y-123659047D02*
X52931009Y-123706666D01*
X52931009Y-123706666D02*
X52978628Y-123801904D01*
X52978628Y-123801904D02*
X52978628Y-124182856D01*
X53454819Y-123182856D02*
X52788152Y-123182856D01*
X52454819Y-123182856D02*
X52502438Y-123230475D01*
X52502438Y-123230475D02*
X52550057Y-123182856D01*
X52550057Y-123182856D02*
X52502438Y-123135237D01*
X52502438Y-123135237D02*
X52454819Y-123182856D01*
X52454819Y-123182856D02*
X52550057Y-123182856D01*
X53407200Y-122325714D02*
X53454819Y-122420952D01*
X53454819Y-122420952D02*
X53454819Y-122611428D01*
X53454819Y-122611428D02*
X53407200Y-122706666D01*
X53407200Y-122706666D02*
X53311961Y-122754285D01*
X53311961Y-122754285D02*
X52931009Y-122754285D01*
X52931009Y-122754285D02*
X52835771Y-122706666D01*
X52835771Y-122706666D02*
X52788152Y-122611428D01*
X52788152Y-122611428D02*
X52788152Y-122420952D01*
X52788152Y-122420952D02*
X52835771Y-122325714D01*
X52835771Y-122325714D02*
X52931009Y-122278095D01*
X52931009Y-122278095D02*
X53026247Y-122278095D01*
X53026247Y-122278095D02*
X53121485Y-122754285D01*
X52788152Y-121944761D02*
X52788152Y-121420952D01*
X52788152Y-121420952D02*
X53454819Y-121944761D01*
X53454819Y-121944761D02*
X53454819Y-121420952D01*
X53454819Y-120897142D02*
X53407200Y-120992380D01*
X53407200Y-120992380D02*
X53359580Y-121039999D01*
X53359580Y-121039999D02*
X53264342Y-121087618D01*
X53264342Y-121087618D02*
X52978628Y-121087618D01*
X52978628Y-121087618D02*
X52883390Y-121039999D01*
X52883390Y-121039999D02*
X52835771Y-120992380D01*
X52835771Y-120992380D02*
X52788152Y-120897142D01*
X52788152Y-120897142D02*
X52788152Y-120754285D01*
X52788152Y-120754285D02*
X52835771Y-120659047D01*
X52835771Y-120659047D02*
X52883390Y-120611428D01*
X52883390Y-120611428D02*
X52978628Y-120563809D01*
X52978628Y-120563809D02*
X53264342Y-120563809D01*
X53264342Y-120563809D02*
X53359580Y-120611428D01*
X53359580Y-120611428D02*
X53407200Y-120659047D01*
X53407200Y-120659047D02*
X53454819Y-120754285D01*
X53454819Y-120754285D02*
X53454819Y-120897142D01*
X53454819Y-118849523D02*
X53454819Y-119420951D01*
X53454819Y-119135237D02*
X52454819Y-119135237D01*
X52454819Y-119135237D02*
X52597676Y-119230475D01*
X52597676Y-119230475D02*
X52692914Y-119325713D01*
X52692914Y-119325713D02*
X52740533Y-119420951D01*
X71454819Y-82285714D02*
X71454819Y-82857142D01*
X71454819Y-82571428D02*
X70454819Y-82571428D01*
X70454819Y-82571428D02*
X70597676Y-82666666D01*
X70597676Y-82666666D02*
X70692914Y-82761904D01*
X70692914Y-82761904D02*
X70740533Y-82857142D01*
X71454819Y-81857142D02*
X70454819Y-81857142D01*
X70454819Y-81857142D02*
X71169104Y-81523809D01*
X71169104Y-81523809D02*
X70454819Y-81190476D01*
X70454819Y-81190476D02*
X71454819Y-81190476D01*
X68454819Y-82166666D02*
X67978628Y-82499999D01*
X68454819Y-82738094D02*
X67454819Y-82738094D01*
X67454819Y-82738094D02*
X67454819Y-82357142D01*
X67454819Y-82357142D02*
X67502438Y-82261904D01*
X67502438Y-82261904D02*
X67550057Y-82214285D01*
X67550057Y-82214285D02*
X67645295Y-82166666D01*
X67645295Y-82166666D02*
X67788152Y-82166666D01*
X67788152Y-82166666D02*
X67883390Y-82214285D01*
X67883390Y-82214285D02*
X67931009Y-82261904D01*
X67931009Y-82261904D02*
X67978628Y-82357142D01*
X67978628Y-82357142D02*
X67978628Y-82738094D01*
X67454819Y-81833332D02*
X67454819Y-81214285D01*
X67454819Y-81214285D02*
X67835771Y-81547618D01*
X67835771Y-81547618D02*
X67835771Y-81404761D01*
X67835771Y-81404761D02*
X67883390Y-81309523D01*
X67883390Y-81309523D02*
X67931009Y-81261904D01*
X67931009Y-81261904D02*
X68026247Y-81214285D01*
X68026247Y-81214285D02*
X68264342Y-81214285D01*
X68264342Y-81214285D02*
X68359580Y-81261904D01*
X68359580Y-81261904D02*
X68407200Y-81309523D01*
X68407200Y-81309523D02*
X68454819Y-81404761D01*
X68454819Y-81404761D02*
X68454819Y-81690475D01*
X68454819Y-81690475D02*
X68407200Y-81785713D01*
X68407200Y-81785713D02*
X68359580Y-81833332D01*
X71954819Y-121785714D02*
X71954819Y-122357142D01*
X71954819Y-122071428D02*
X70954819Y-122071428D01*
X70954819Y-122071428D02*
X71097676Y-122166666D01*
X71097676Y-122166666D02*
X71192914Y-122261904D01*
X71192914Y-122261904D02*
X71240533Y-122357142D01*
X71954819Y-121357142D02*
X70954819Y-121357142D01*
X70954819Y-121357142D02*
X71669104Y-121023809D01*
X71669104Y-121023809D02*
X70954819Y-120690476D01*
X70954819Y-120690476D02*
X71954819Y-120690476D01*
X68954819Y-121666666D02*
X68478628Y-121999999D01*
X68954819Y-122238094D02*
X67954819Y-122238094D01*
X67954819Y-122238094D02*
X67954819Y-121857142D01*
X67954819Y-121857142D02*
X68002438Y-121761904D01*
X68002438Y-121761904D02*
X68050057Y-121714285D01*
X68050057Y-121714285D02*
X68145295Y-121666666D01*
X68145295Y-121666666D02*
X68288152Y-121666666D01*
X68288152Y-121666666D02*
X68383390Y-121714285D01*
X68383390Y-121714285D02*
X68431009Y-121761904D01*
X68431009Y-121761904D02*
X68478628Y-121857142D01*
X68478628Y-121857142D02*
X68478628Y-122238094D01*
X68954819Y-120714285D02*
X68954819Y-121285713D01*
X68954819Y-120999999D02*
X67954819Y-120999999D01*
X67954819Y-120999999D02*
X68097676Y-121095237D01*
X68097676Y-121095237D02*
X68192914Y-121190475D01*
X68192914Y-121190475D02*
X68240533Y-121285713D01*
X82651905Y-59454819D02*
X82651905Y-58454819D01*
X82651905Y-58454819D02*
X82890000Y-58454819D01*
X82890000Y-58454819D02*
X83032857Y-58502438D01*
X83032857Y-58502438D02*
X83128095Y-58597676D01*
X83128095Y-58597676D02*
X83175714Y-58692914D01*
X83175714Y-58692914D02*
X83223333Y-58883390D01*
X83223333Y-58883390D02*
X83223333Y-59026247D01*
X83223333Y-59026247D02*
X83175714Y-59216723D01*
X83175714Y-59216723D02*
X83128095Y-59311961D01*
X83128095Y-59311961D02*
X83032857Y-59407200D01*
X83032857Y-59407200D02*
X82890000Y-59454819D01*
X82890000Y-59454819D02*
X82651905Y-59454819D01*
X83794762Y-58883390D02*
X83699524Y-58835771D01*
X83699524Y-58835771D02*
X83651905Y-58788152D01*
X83651905Y-58788152D02*
X83604286Y-58692914D01*
X83604286Y-58692914D02*
X83604286Y-58645295D01*
X83604286Y-58645295D02*
X83651905Y-58550057D01*
X83651905Y-58550057D02*
X83699524Y-58502438D01*
X83699524Y-58502438D02*
X83794762Y-58454819D01*
X83794762Y-58454819D02*
X83985238Y-58454819D01*
X83985238Y-58454819D02*
X84080476Y-58502438D01*
X84080476Y-58502438D02*
X84128095Y-58550057D01*
X84128095Y-58550057D02*
X84175714Y-58645295D01*
X84175714Y-58645295D02*
X84175714Y-58692914D01*
X84175714Y-58692914D02*
X84128095Y-58788152D01*
X84128095Y-58788152D02*
X84080476Y-58835771D01*
X84080476Y-58835771D02*
X83985238Y-58883390D01*
X83985238Y-58883390D02*
X83794762Y-58883390D01*
X83794762Y-58883390D02*
X83699524Y-58931009D01*
X83699524Y-58931009D02*
X83651905Y-58978628D01*
X83651905Y-58978628D02*
X83604286Y-59073866D01*
X83604286Y-59073866D02*
X83604286Y-59264342D01*
X83604286Y-59264342D02*
X83651905Y-59359580D01*
X83651905Y-59359580D02*
X83699524Y-59407200D01*
X83699524Y-59407200D02*
X83794762Y-59454819D01*
X83794762Y-59454819D02*
X83985238Y-59454819D01*
X83985238Y-59454819D02*
X84080476Y-59407200D01*
X84080476Y-59407200D02*
X84128095Y-59359580D01*
X84128095Y-59359580D02*
X84175714Y-59264342D01*
X84175714Y-59264342D02*
X84175714Y-59073866D01*
X84175714Y-59073866D02*
X84128095Y-58978628D01*
X84128095Y-58978628D02*
X84080476Y-58931009D01*
X84080476Y-58931009D02*
X83985238Y-58883390D01*
X81871905Y-86454819D02*
X81871905Y-85454819D01*
X81871905Y-85454819D02*
X82110000Y-85454819D01*
X82110000Y-85454819D02*
X82252857Y-85502438D01*
X82252857Y-85502438D02*
X82348095Y-85597676D01*
X82348095Y-85597676D02*
X82395714Y-85692914D01*
X82395714Y-85692914D02*
X82443333Y-85883390D01*
X82443333Y-85883390D02*
X82443333Y-86026247D01*
X82443333Y-86026247D02*
X82395714Y-86216723D01*
X82395714Y-86216723D02*
X82348095Y-86311961D01*
X82348095Y-86311961D02*
X82252857Y-86407200D01*
X82252857Y-86407200D02*
X82110000Y-86454819D01*
X82110000Y-86454819D02*
X81871905Y-86454819D01*
X83348095Y-85454819D02*
X82871905Y-85454819D01*
X82871905Y-85454819D02*
X82824286Y-85931009D01*
X82824286Y-85931009D02*
X82871905Y-85883390D01*
X82871905Y-85883390D02*
X82967143Y-85835771D01*
X82967143Y-85835771D02*
X83205238Y-85835771D01*
X83205238Y-85835771D02*
X83300476Y-85883390D01*
X83300476Y-85883390D02*
X83348095Y-85931009D01*
X83348095Y-85931009D02*
X83395714Y-86026247D01*
X83395714Y-86026247D02*
X83395714Y-86264342D01*
X83395714Y-86264342D02*
X83348095Y-86359580D01*
X83348095Y-86359580D02*
X83300476Y-86407200D01*
X83300476Y-86407200D02*
X83205238Y-86454819D01*
X83205238Y-86454819D02*
X82967143Y-86454819D01*
X82967143Y-86454819D02*
X82871905Y-86407200D01*
X82871905Y-86407200D02*
X82824286Y-86359580D01*
X71782319Y-102285714D02*
X71782319Y-102857142D01*
X71782319Y-102571428D02*
X70782319Y-102571428D01*
X70782319Y-102571428D02*
X70925176Y-102666666D01*
X70925176Y-102666666D02*
X71020414Y-102761904D01*
X71020414Y-102761904D02*
X71068033Y-102857142D01*
X71782319Y-101857142D02*
X70782319Y-101857142D01*
X70782319Y-101857142D02*
X71496604Y-101523809D01*
X71496604Y-101523809D02*
X70782319Y-101190476D01*
X70782319Y-101190476D02*
X71782319Y-101190476D01*
X68954819Y-102166666D02*
X68478628Y-102499999D01*
X68954819Y-102738094D02*
X67954819Y-102738094D01*
X67954819Y-102738094D02*
X67954819Y-102357142D01*
X67954819Y-102357142D02*
X68002438Y-102261904D01*
X68002438Y-102261904D02*
X68050057Y-102214285D01*
X68050057Y-102214285D02*
X68145295Y-102166666D01*
X68145295Y-102166666D02*
X68288152Y-102166666D01*
X68288152Y-102166666D02*
X68383390Y-102214285D01*
X68383390Y-102214285D02*
X68431009Y-102261904D01*
X68431009Y-102261904D02*
X68478628Y-102357142D01*
X68478628Y-102357142D02*
X68478628Y-102738094D01*
X68050057Y-101785713D02*
X68002438Y-101738094D01*
X68002438Y-101738094D02*
X67954819Y-101642856D01*
X67954819Y-101642856D02*
X67954819Y-101404761D01*
X67954819Y-101404761D02*
X68002438Y-101309523D01*
X68002438Y-101309523D02*
X68050057Y-101261904D01*
X68050057Y-101261904D02*
X68145295Y-101214285D01*
X68145295Y-101214285D02*
X68240533Y-101214285D01*
X68240533Y-101214285D02*
X68383390Y-101261904D01*
X68383390Y-101261904D02*
X68954819Y-101833332D01*
X68954819Y-101833332D02*
X68954819Y-101214285D01*
X83651905Y-106454819D02*
X83651905Y-105454819D01*
X83651905Y-105454819D02*
X83890000Y-105454819D01*
X83890000Y-105454819D02*
X84032857Y-105502438D01*
X84032857Y-105502438D02*
X84128095Y-105597676D01*
X84128095Y-105597676D02*
X84175714Y-105692914D01*
X84175714Y-105692914D02*
X84223333Y-105883390D01*
X84223333Y-105883390D02*
X84223333Y-106026247D01*
X84223333Y-106026247D02*
X84175714Y-106216723D01*
X84175714Y-106216723D02*
X84128095Y-106311961D01*
X84128095Y-106311961D02*
X84032857Y-106407200D01*
X84032857Y-106407200D02*
X83890000Y-106454819D01*
X83890000Y-106454819D02*
X83651905Y-106454819D01*
X84556667Y-105454819D02*
X85175714Y-105454819D01*
X85175714Y-105454819D02*
X84842381Y-105835771D01*
X84842381Y-105835771D02*
X84985238Y-105835771D01*
X84985238Y-105835771D02*
X85080476Y-105883390D01*
X85080476Y-105883390D02*
X85128095Y-105931009D01*
X85128095Y-105931009D02*
X85175714Y-106026247D01*
X85175714Y-106026247D02*
X85175714Y-106264342D01*
X85175714Y-106264342D02*
X85128095Y-106359580D01*
X85128095Y-106359580D02*
X85080476Y-106407200D01*
X85080476Y-106407200D02*
X84985238Y-106454819D01*
X84985238Y-106454819D02*
X84699524Y-106454819D01*
X84699524Y-106454819D02*
X84604286Y-106407200D01*
X84604286Y-106407200D02*
X84556667Y-106359580D01*
X82651905Y-80454819D02*
X82651905Y-79454819D01*
X82651905Y-79454819D02*
X82890000Y-79454819D01*
X82890000Y-79454819D02*
X83032857Y-79502438D01*
X83032857Y-79502438D02*
X83128095Y-79597676D01*
X83128095Y-79597676D02*
X83175714Y-79692914D01*
X83175714Y-79692914D02*
X83223333Y-79883390D01*
X83223333Y-79883390D02*
X83223333Y-80026247D01*
X83223333Y-80026247D02*
X83175714Y-80216723D01*
X83175714Y-80216723D02*
X83128095Y-80311961D01*
X83128095Y-80311961D02*
X83032857Y-80407200D01*
X83032857Y-80407200D02*
X82890000Y-80454819D01*
X82890000Y-80454819D02*
X82651905Y-80454819D01*
X84080476Y-79454819D02*
X83890000Y-79454819D01*
X83890000Y-79454819D02*
X83794762Y-79502438D01*
X83794762Y-79502438D02*
X83747143Y-79550057D01*
X83747143Y-79550057D02*
X83651905Y-79692914D01*
X83651905Y-79692914D02*
X83604286Y-79883390D01*
X83604286Y-79883390D02*
X83604286Y-80264342D01*
X83604286Y-80264342D02*
X83651905Y-80359580D01*
X83651905Y-80359580D02*
X83699524Y-80407200D01*
X83699524Y-80407200D02*
X83794762Y-80454819D01*
X83794762Y-80454819D02*
X83985238Y-80454819D01*
X83985238Y-80454819D02*
X84080476Y-80407200D01*
X84080476Y-80407200D02*
X84128095Y-80359580D01*
X84128095Y-80359580D02*
X84175714Y-80264342D01*
X84175714Y-80264342D02*
X84175714Y-80026247D01*
X84175714Y-80026247D02*
X84128095Y-79931009D01*
X84128095Y-79931009D02*
X84080476Y-79883390D01*
X84080476Y-79883390D02*
X83985238Y-79835771D01*
X83985238Y-79835771D02*
X83794762Y-79835771D01*
X83794762Y-79835771D02*
X83699524Y-79883390D01*
X83699524Y-79883390D02*
X83651905Y-79931009D01*
X83651905Y-79931009D02*
X83604286Y-80026247D01*
X118901366Y-98835951D02*
X118901366Y-98074047D01*
X119282319Y-98454999D02*
X118520414Y-98454999D01*
X83261905Y-99454819D02*
X83261905Y-98454819D01*
X83261905Y-98454819D02*
X83500000Y-98454819D01*
X83500000Y-98454819D02*
X83642857Y-98502438D01*
X83642857Y-98502438D02*
X83738095Y-98597676D01*
X83738095Y-98597676D02*
X83785714Y-98692914D01*
X83785714Y-98692914D02*
X83833333Y-98883390D01*
X83833333Y-98883390D02*
X83833333Y-99026247D01*
X83833333Y-99026247D02*
X83785714Y-99216723D01*
X83785714Y-99216723D02*
X83738095Y-99311961D01*
X83738095Y-99311961D02*
X83642857Y-99407200D01*
X83642857Y-99407200D02*
X83500000Y-99454819D01*
X83500000Y-99454819D02*
X83261905Y-99454819D01*
X84690476Y-98788152D02*
X84690476Y-99454819D01*
X84452381Y-98407200D02*
X84214286Y-99121485D01*
X84214286Y-99121485D02*
X84833333Y-99121485D01*
X83261905Y-127454819D02*
X83261905Y-126454819D01*
X83261905Y-126454819D02*
X83500000Y-126454819D01*
X83500000Y-126454819D02*
X83642857Y-126502438D01*
X83642857Y-126502438D02*
X83738095Y-126597676D01*
X83738095Y-126597676D02*
X83785714Y-126692914D01*
X83785714Y-126692914D02*
X83833333Y-126883390D01*
X83833333Y-126883390D02*
X83833333Y-127026247D01*
X83833333Y-127026247D02*
X83785714Y-127216723D01*
X83785714Y-127216723D02*
X83738095Y-127311961D01*
X83738095Y-127311961D02*
X83642857Y-127407200D01*
X83642857Y-127407200D02*
X83500000Y-127454819D01*
X83500000Y-127454819D02*
X83261905Y-127454819D01*
X84785714Y-127454819D02*
X84214286Y-127454819D01*
X84500000Y-127454819D02*
X84500000Y-126454819D01*
X84500000Y-126454819D02*
X84404762Y-126597676D01*
X84404762Y-126597676D02*
X84309524Y-126692914D01*
X84309524Y-126692914D02*
X84214286Y-126740533D01*
X71282319Y-62820714D02*
X71282319Y-63392142D01*
X71282319Y-63106428D02*
X70282319Y-63106428D01*
X70282319Y-63106428D02*
X70425176Y-63201666D01*
X70425176Y-63201666D02*
X70520414Y-63296904D01*
X70520414Y-63296904D02*
X70568033Y-63392142D01*
X71282319Y-62392142D02*
X70282319Y-62392142D01*
X70282319Y-62392142D02*
X70996604Y-62058809D01*
X70996604Y-62058809D02*
X70282319Y-61725476D01*
X70282319Y-61725476D02*
X71282319Y-61725476D01*
X68454819Y-62701666D02*
X67978628Y-63034999D01*
X68454819Y-63273094D02*
X67454819Y-63273094D01*
X67454819Y-63273094D02*
X67454819Y-62892142D01*
X67454819Y-62892142D02*
X67502438Y-62796904D01*
X67502438Y-62796904D02*
X67550057Y-62749285D01*
X67550057Y-62749285D02*
X67645295Y-62701666D01*
X67645295Y-62701666D02*
X67788152Y-62701666D01*
X67788152Y-62701666D02*
X67883390Y-62749285D01*
X67883390Y-62749285D02*
X67931009Y-62796904D01*
X67931009Y-62796904D02*
X67978628Y-62892142D01*
X67978628Y-62892142D02*
X67978628Y-63273094D01*
X67788152Y-61844523D02*
X68454819Y-61844523D01*
X67407200Y-62082618D02*
X68121485Y-62320713D01*
X68121485Y-62320713D02*
X68121485Y-61701666D01*
X83261905Y-119954819D02*
X83261905Y-118954819D01*
X83261905Y-118954819D02*
X83500000Y-118954819D01*
X83500000Y-118954819D02*
X83642857Y-119002438D01*
X83642857Y-119002438D02*
X83738095Y-119097676D01*
X83738095Y-119097676D02*
X83785714Y-119192914D01*
X83785714Y-119192914D02*
X83833333Y-119383390D01*
X83833333Y-119383390D02*
X83833333Y-119526247D01*
X83833333Y-119526247D02*
X83785714Y-119716723D01*
X83785714Y-119716723D02*
X83738095Y-119811961D01*
X83738095Y-119811961D02*
X83642857Y-119907200D01*
X83642857Y-119907200D02*
X83500000Y-119954819D01*
X83500000Y-119954819D02*
X83261905Y-119954819D01*
X84214286Y-119050057D02*
X84261905Y-119002438D01*
X84261905Y-119002438D02*
X84357143Y-118954819D01*
X84357143Y-118954819D02*
X84595238Y-118954819D01*
X84595238Y-118954819D02*
X84690476Y-119002438D01*
X84690476Y-119002438D02*
X84738095Y-119050057D01*
X84738095Y-119050057D02*
X84785714Y-119145295D01*
X84785714Y-119145295D02*
X84785714Y-119240533D01*
X84785714Y-119240533D02*
X84738095Y-119383390D01*
X84738095Y-119383390D02*
X84166667Y-119954819D01*
X84166667Y-119954819D02*
X84785714Y-119954819D01*
X98793714Y-64849104D02*
X99269904Y-64849104D01*
X98698476Y-65134819D02*
X99031809Y-64134819D01*
X99031809Y-64134819D02*
X99365142Y-65134819D01*
X100222285Y-65134819D02*
X99650857Y-65134819D01*
X99936571Y-65134819D02*
X99936571Y-64134819D01*
X99936571Y-64134819D02*
X99841333Y-64277676D01*
X99841333Y-64277676D02*
X99746095Y-64372914D01*
X99746095Y-64372914D02*
X99650857Y-64420533D01*
X105169104Y-72119047D02*
X105169104Y-71642857D01*
X105454819Y-72214285D02*
X104454819Y-71880952D01*
X104454819Y-71880952D02*
X105454819Y-71547619D01*
X105454819Y-71214285D02*
X104454819Y-71214285D01*
X104454819Y-71214285D02*
X104454819Y-70976190D01*
X104454819Y-70976190D02*
X104502438Y-70833333D01*
X104502438Y-70833333D02*
X104597676Y-70738095D01*
X104597676Y-70738095D02*
X104692914Y-70690476D01*
X104692914Y-70690476D02*
X104883390Y-70642857D01*
X104883390Y-70642857D02*
X105026247Y-70642857D01*
X105026247Y-70642857D02*
X105216723Y-70690476D01*
X105216723Y-70690476D02*
X105311961Y-70738095D01*
X105311961Y-70738095D02*
X105407200Y-70833333D01*
X105407200Y-70833333D02*
X105454819Y-70976190D01*
X105454819Y-70976190D02*
X105454819Y-71214285D01*
X105407200Y-70261904D02*
X105454819Y-70119047D01*
X105454819Y-70119047D02*
X105454819Y-69880952D01*
X105454819Y-69880952D02*
X105407200Y-69785714D01*
X105407200Y-69785714D02*
X105359580Y-69738095D01*
X105359580Y-69738095D02*
X105264342Y-69690476D01*
X105264342Y-69690476D02*
X105169104Y-69690476D01*
X105169104Y-69690476D02*
X105073866Y-69738095D01*
X105073866Y-69738095D02*
X105026247Y-69785714D01*
X105026247Y-69785714D02*
X104978628Y-69880952D01*
X104978628Y-69880952D02*
X104931009Y-70071428D01*
X104931009Y-70071428D02*
X104883390Y-70166666D01*
X104883390Y-70166666D02*
X104835771Y-70214285D01*
X104835771Y-70214285D02*
X104740533Y-70261904D01*
X104740533Y-70261904D02*
X104645295Y-70261904D01*
X104645295Y-70261904D02*
X104550057Y-70214285D01*
X104550057Y-70214285D02*
X104502438Y-70166666D01*
X104502438Y-70166666D02*
X104454819Y-70071428D01*
X104454819Y-70071428D02*
X104454819Y-69833333D01*
X104454819Y-69833333D02*
X104502438Y-69690476D01*
X105454819Y-68738095D02*
X105454819Y-69309523D01*
X105454819Y-69023809D02*
X104454819Y-69023809D01*
X104454819Y-69023809D02*
X104597676Y-69119047D01*
X104597676Y-69119047D02*
X104692914Y-69214285D01*
X104692914Y-69214285D02*
X104740533Y-69309523D01*
X105454819Y-67785714D02*
X105454819Y-68357142D01*
X105454819Y-68071428D02*
X104454819Y-68071428D01*
X104454819Y-68071428D02*
X104597676Y-68166666D01*
X104597676Y-68166666D02*
X104692914Y-68261904D01*
X104692914Y-68261904D02*
X104740533Y-68357142D01*
X105454819Y-66833333D02*
X105454819Y-67404761D01*
X105454819Y-67119047D02*
X104454819Y-67119047D01*
X104454819Y-67119047D02*
X104597676Y-67214285D01*
X104597676Y-67214285D02*
X104692914Y-67309523D01*
X104692914Y-67309523D02*
X104740533Y-67404761D01*
X104454819Y-65928571D02*
X104454819Y-66404761D01*
X104454819Y-66404761D02*
X104931009Y-66452380D01*
X104931009Y-66452380D02*
X104883390Y-66404761D01*
X104883390Y-66404761D02*
X104835771Y-66309523D01*
X104835771Y-66309523D02*
X104835771Y-66071428D01*
X104835771Y-66071428D02*
X104883390Y-65976190D01*
X104883390Y-65976190D02*
X104931009Y-65928571D01*
X104931009Y-65928571D02*
X105026247Y-65880952D01*
X105026247Y-65880952D02*
X105264342Y-65880952D01*
X105264342Y-65880952D02*
X105359580Y-65928571D01*
X105359580Y-65928571D02*
X105407200Y-65976190D01*
X105407200Y-65976190D02*
X105454819Y-66071428D01*
X105454819Y-66071428D02*
X105454819Y-66309523D01*
X105454819Y-66309523D02*
X105407200Y-66404761D01*
X105407200Y-66404761D02*
X105359580Y-66452380D01*
X118901366Y-93835951D02*
X118901366Y-93074047D01*
X81871905Y-66454819D02*
X81871905Y-65454819D01*
X81871905Y-65454819D02*
X82110000Y-65454819D01*
X82110000Y-65454819D02*
X82252857Y-65502438D01*
X82252857Y-65502438D02*
X82348095Y-65597676D01*
X82348095Y-65597676D02*
X82395714Y-65692914D01*
X82395714Y-65692914D02*
X82443333Y-65883390D01*
X82443333Y-65883390D02*
X82443333Y-66026247D01*
X82443333Y-66026247D02*
X82395714Y-66216723D01*
X82395714Y-66216723D02*
X82348095Y-66311961D01*
X82348095Y-66311961D02*
X82252857Y-66407200D01*
X82252857Y-66407200D02*
X82110000Y-66454819D01*
X82110000Y-66454819D02*
X81871905Y-66454819D01*
X82776667Y-65454819D02*
X83443333Y-65454819D01*
X83443333Y-65454819D02*
X83014762Y-66454819D01*
X122282319Y-112431190D02*
X122282319Y-111859762D01*
X123282319Y-112145476D02*
X122282319Y-112145476D01*
X123282319Y-111526428D02*
X122615652Y-111526428D01*
X122806128Y-111526428D02*
X122710890Y-111478809D01*
X122710890Y-111478809D02*
X122663271Y-111431190D01*
X122663271Y-111431190D02*
X122615652Y-111335952D01*
X122615652Y-111335952D02*
X122615652Y-111240714D01*
X123282319Y-110478809D02*
X122758509Y-110478809D01*
X122758509Y-110478809D02*
X122663271Y-110526428D01*
X122663271Y-110526428D02*
X122615652Y-110621666D01*
X122615652Y-110621666D02*
X122615652Y-110812142D01*
X122615652Y-110812142D02*
X122663271Y-110907380D01*
X123234700Y-110478809D02*
X123282319Y-110574047D01*
X123282319Y-110574047D02*
X123282319Y-110812142D01*
X123282319Y-110812142D02*
X123234700Y-110907380D01*
X123234700Y-110907380D02*
X123139461Y-110954999D01*
X123139461Y-110954999D02*
X123044223Y-110954999D01*
X123044223Y-110954999D02*
X122948985Y-110907380D01*
X122948985Y-110907380D02*
X122901366Y-110812142D01*
X122901366Y-110812142D02*
X122901366Y-110574047D01*
X122901366Y-110574047D02*
X122853747Y-110478809D01*
X122615652Y-110002618D02*
X123282319Y-110002618D01*
X122710890Y-110002618D02*
X122663271Y-109954999D01*
X122663271Y-109954999D02*
X122615652Y-109859761D01*
X122615652Y-109859761D02*
X122615652Y-109716904D01*
X122615652Y-109716904D02*
X122663271Y-109621666D01*
X122663271Y-109621666D02*
X122758509Y-109574047D01*
X122758509Y-109574047D02*
X123282319Y-109574047D01*
X123234700Y-109145475D02*
X123282319Y-109050237D01*
X123282319Y-109050237D02*
X123282319Y-108859761D01*
X123282319Y-108859761D02*
X123234700Y-108764523D01*
X123234700Y-108764523D02*
X123139461Y-108716904D01*
X123139461Y-108716904D02*
X123091842Y-108716904D01*
X123091842Y-108716904D02*
X122996604Y-108764523D01*
X122996604Y-108764523D02*
X122948985Y-108859761D01*
X122948985Y-108859761D02*
X122948985Y-109002618D01*
X122948985Y-109002618D02*
X122901366Y-109097856D01*
X122901366Y-109097856D02*
X122806128Y-109145475D01*
X122806128Y-109145475D02*
X122758509Y-109145475D01*
X122758509Y-109145475D02*
X122663271Y-109097856D01*
X122663271Y-109097856D02*
X122615652Y-109002618D01*
X122615652Y-109002618D02*
X122615652Y-108859761D01*
X122615652Y-108859761D02*
X122663271Y-108764523D01*
X123282319Y-107859761D02*
X122282319Y-107859761D01*
X123234700Y-107859761D02*
X123282319Y-107954999D01*
X123282319Y-107954999D02*
X123282319Y-108145475D01*
X123282319Y-108145475D02*
X123234700Y-108240713D01*
X123234700Y-108240713D02*
X123187080Y-108288332D01*
X123187080Y-108288332D02*
X123091842Y-108335951D01*
X123091842Y-108335951D02*
X122806128Y-108335951D01*
X122806128Y-108335951D02*
X122710890Y-108288332D01*
X122710890Y-108288332D02*
X122663271Y-108240713D01*
X122663271Y-108240713D02*
X122615652Y-108145475D01*
X122615652Y-108145475D02*
X122615652Y-107954999D01*
X122615652Y-107954999D02*
X122663271Y-107859761D01*
X122615652Y-106954999D02*
X123282319Y-106954999D01*
X122615652Y-107383570D02*
X123139461Y-107383570D01*
X123139461Y-107383570D02*
X123234700Y-107335951D01*
X123234700Y-107335951D02*
X123282319Y-107240713D01*
X123282319Y-107240713D02*
X123282319Y-107097856D01*
X123282319Y-107097856D02*
X123234700Y-107002618D01*
X123234700Y-107002618D02*
X123187080Y-106954999D01*
X123234700Y-106050237D02*
X123282319Y-106145475D01*
X123282319Y-106145475D02*
X123282319Y-106335951D01*
X123282319Y-106335951D02*
X123234700Y-106431189D01*
X123234700Y-106431189D02*
X123187080Y-106478808D01*
X123187080Y-106478808D02*
X123091842Y-106526427D01*
X123091842Y-106526427D02*
X122806128Y-106526427D01*
X122806128Y-106526427D02*
X122710890Y-106478808D01*
X122710890Y-106478808D02*
X122663271Y-106431189D01*
X122663271Y-106431189D02*
X122615652Y-106335951D01*
X122615652Y-106335951D02*
X122615652Y-106145475D01*
X122615652Y-106145475D02*
X122663271Y-106050237D01*
X123234700Y-105240713D02*
X123282319Y-105335951D01*
X123282319Y-105335951D02*
X123282319Y-105526427D01*
X123282319Y-105526427D02*
X123234700Y-105621665D01*
X123234700Y-105621665D02*
X123139461Y-105669284D01*
X123139461Y-105669284D02*
X122758509Y-105669284D01*
X122758509Y-105669284D02*
X122663271Y-105621665D01*
X122663271Y-105621665D02*
X122615652Y-105526427D01*
X122615652Y-105526427D02*
X122615652Y-105335951D01*
X122615652Y-105335951D02*
X122663271Y-105240713D01*
X122663271Y-105240713D02*
X122758509Y-105193094D01*
X122758509Y-105193094D02*
X122853747Y-105193094D01*
X122853747Y-105193094D02*
X122948985Y-105669284D01*
X123282319Y-104764522D02*
X122615652Y-104764522D01*
X122806128Y-104764522D02*
X122710890Y-104716903D01*
X122710890Y-104716903D02*
X122663271Y-104669284D01*
X122663271Y-104669284D02*
X122615652Y-104574046D01*
X122615652Y-104574046D02*
X122615652Y-104478808D01*
D13*
G36*
X119317500Y-81575100D02*
G01*
X119465623Y-81601330D01*
X119754038Y-81650382D01*
X120155920Y-81717771D01*
X120644444Y-81799012D01*
X121192785Y-81889617D01*
X121518833Y-81943241D01*
X122072553Y-82036057D01*
X122566038Y-82122415D01*
X122976213Y-82197980D01*
X123280007Y-82258412D01*
X123454348Y-82299374D01*
X123487333Y-82313334D01*
X123407561Y-82339620D01*
X123183626Y-82388141D01*
X122838601Y-82454560D01*
X122395559Y-82534539D01*
X121877572Y-82623739D01*
X121518833Y-82683426D01*
X120948558Y-82777339D01*
X120422948Y-82864420D01*
X119968827Y-82940185D01*
X119613021Y-83000147D01*
X119382353Y-83039820D01*
X119317500Y-83051568D01*
X119084666Y-83096500D01*
X119084666Y-82313334D01*
X119084666Y-81530167D01*
X119317500Y-81575100D01*
G37*
G36*
X119317500Y-74801767D02*
G01*
X119465623Y-74827996D01*
X119754038Y-74877049D01*
X120155920Y-74944438D01*
X120644444Y-75025678D01*
X121192785Y-75116283D01*
X121518833Y-75169908D01*
X122072553Y-75262723D01*
X122566038Y-75349082D01*
X122976213Y-75424646D01*
X123280007Y-75485079D01*
X123454348Y-75526040D01*
X123487333Y-75540000D01*
X123407561Y-75566286D01*
X123183626Y-75614808D01*
X122838601Y-75681227D01*
X122395559Y-75761205D01*
X121877572Y-75850406D01*
X121518833Y-75910093D01*
X120948558Y-76004005D01*
X120422948Y-76091087D01*
X119968827Y-76166851D01*
X119613021Y-76226813D01*
X119382353Y-76266486D01*
X119317500Y-76278234D01*
X119084666Y-76323167D01*
X119084666Y-75540000D01*
X119084666Y-74756834D01*
X119317500Y-74801767D01*
G37*
G36*
X119317500Y-68028433D02*
G01*
X119465623Y-68054663D01*
X119754038Y-68103715D01*
X120155920Y-68171105D01*
X120644444Y-68252345D01*
X121192785Y-68342950D01*
X121518833Y-68396575D01*
X122072553Y-68489390D01*
X122566038Y-68575749D01*
X122976213Y-68651313D01*
X123280007Y-68711745D01*
X123454348Y-68752707D01*
X123487333Y-68766667D01*
X123407561Y-68792953D01*
X123183626Y-68841474D01*
X122838601Y-68907893D01*
X122395559Y-68987872D01*
X121877572Y-69077073D01*
X121518833Y-69136760D01*
X120948558Y-69230672D01*
X120422948Y-69317753D01*
X119968827Y-69393518D01*
X119613021Y-69453480D01*
X119382353Y-69493153D01*
X119317500Y-69504901D01*
X119084666Y-69549834D01*
X119084666Y-68766667D01*
X119084666Y-67983500D01*
X119317500Y-68028433D01*
G37*
G36*
X119317500Y-61255100D02*
G01*
X119465623Y-61281330D01*
X119754038Y-61330382D01*
X120155920Y-61397771D01*
X120644444Y-61479012D01*
X121192785Y-61569617D01*
X121518833Y-61623241D01*
X122072553Y-61716057D01*
X122566038Y-61802415D01*
X122976213Y-61877980D01*
X123280007Y-61938412D01*
X123454348Y-61979374D01*
X123487333Y-61993334D01*
X123407561Y-62019620D01*
X123183626Y-62068141D01*
X122838601Y-62134560D01*
X122395559Y-62214539D01*
X121877572Y-62303739D01*
X121518833Y-62363426D01*
X120948558Y-62457339D01*
X120422948Y-62544420D01*
X119968827Y-62620185D01*
X119613021Y-62680147D01*
X119382353Y-62719820D01*
X119317500Y-62731568D01*
X119084666Y-62776500D01*
X119084666Y-61993334D01*
X119084666Y-61210167D01*
X119317500Y-61255100D01*
G37*
G36*
X119232833Y-83262866D02*
G01*
X119358663Y-83290314D01*
X119622865Y-83344654D01*
X119997626Y-83420281D01*
X120455133Y-83511587D01*
X120967573Y-83612965D01*
X121053166Y-83629818D01*
X121560143Y-83731828D01*
X122005320Y-83825729D01*
X122363864Y-83905922D01*
X122610939Y-83966812D01*
X122721712Y-84002801D01*
X122725333Y-84006667D01*
X122646299Y-84036723D01*
X122425755Y-84092854D01*
X122088533Y-84169462D01*
X121659469Y-84260952D01*
X121163396Y-84361725D01*
X121053166Y-84383517D01*
X120534493Y-84485991D01*
X120066284Y-84579293D01*
X119676352Y-84657817D01*
X119392510Y-84715956D01*
X119242571Y-84748104D01*
X119232833Y-84750469D01*
X119163067Y-84752454D01*
X119119286Y-84695253D01*
X119095585Y-84549227D01*
X119086061Y-84284738D01*
X119084666Y-84006667D01*
X119087676Y-83639345D01*
X119100643Y-83411670D01*
X119129470Y-83294003D01*
X119180062Y-83256707D01*
X119232833Y-83262866D01*
G37*
G36*
X119232833Y-76489532D02*
G01*
X119358663Y-76516980D01*
X119622865Y-76571321D01*
X119997626Y-76646948D01*
X120455133Y-76738254D01*
X120967573Y-76839632D01*
X121053166Y-76856484D01*
X121560143Y-76958495D01*
X122005320Y-77052395D01*
X122363864Y-77132589D01*
X122610939Y-77193478D01*
X122721712Y-77229467D01*
X122725333Y-77233334D01*
X122646299Y-77263390D01*
X122425755Y-77319521D01*
X122088533Y-77396129D01*
X121659469Y-77487618D01*
X121163396Y-77588392D01*
X121053166Y-77610183D01*
X120534493Y-77712657D01*
X120066284Y-77805960D01*
X119676352Y-77884484D01*
X119392510Y-77942623D01*
X119242571Y-77974770D01*
X119232833Y-77977135D01*
X119163067Y-77979121D01*
X119119286Y-77921920D01*
X119095585Y-77775894D01*
X119086061Y-77511405D01*
X119084666Y-77233334D01*
X119087676Y-76866012D01*
X119100643Y-76638337D01*
X119129470Y-76520670D01*
X119180062Y-76483374D01*
X119232833Y-76489532D01*
G37*
G36*
X119232833Y-69716199D02*
G01*
X119358663Y-69743647D01*
X119622865Y-69797988D01*
X119997626Y-69873614D01*
X120455133Y-69964920D01*
X120967573Y-70066299D01*
X121053166Y-70083151D01*
X121560143Y-70185162D01*
X122005320Y-70279062D01*
X122363864Y-70359255D01*
X122610939Y-70420145D01*
X122721712Y-70456134D01*
X122725333Y-70460000D01*
X122646299Y-70490057D01*
X122425755Y-70546187D01*
X122088533Y-70622796D01*
X121659469Y-70714285D01*
X121163396Y-70815058D01*
X121053166Y-70836850D01*
X120534493Y-70939324D01*
X120066284Y-71032627D01*
X119676352Y-71111151D01*
X119392510Y-71169290D01*
X119242571Y-71201437D01*
X119232833Y-71203802D01*
X119163067Y-71205788D01*
X119119286Y-71148587D01*
X119095585Y-71002561D01*
X119086061Y-70738071D01*
X119084666Y-70460000D01*
X119087676Y-70092679D01*
X119100643Y-69865003D01*
X119129470Y-69747337D01*
X119180062Y-69710040D01*
X119232833Y-69716199D01*
G37*
G36*
X119232833Y-62942866D02*
G01*
X119358663Y-62970314D01*
X119622865Y-63024654D01*
X119997626Y-63100281D01*
X120455133Y-63191587D01*
X120967573Y-63292965D01*
X121053166Y-63309818D01*
X121560143Y-63411828D01*
X122005320Y-63505729D01*
X122363864Y-63585922D01*
X122610939Y-63646812D01*
X122721712Y-63682801D01*
X122725333Y-63686667D01*
X122646299Y-63716723D01*
X122425755Y-63772854D01*
X122088533Y-63849462D01*
X121659469Y-63940952D01*
X121163396Y-64041725D01*
X121053166Y-64063517D01*
X120534493Y-64165991D01*
X120066284Y-64259293D01*
X119676352Y-64337817D01*
X119392510Y-64395956D01*
X119242571Y-64428104D01*
X119232833Y-64430469D01*
X119163067Y-64432454D01*
X119119286Y-64375253D01*
X119095585Y-64229227D01*
X119086061Y-63964738D01*
X119084666Y-63686667D01*
X119087676Y-63319345D01*
X119100643Y-63091670D01*
X119129470Y-62974003D01*
X119180062Y-62936707D01*
X119232833Y-62942866D01*
G37*
G36*
X119305377Y-84991299D02*
G01*
X119554463Y-85056160D01*
X119907432Y-85145612D01*
X120333956Y-85251941D01*
X120629833Y-85324871D01*
X121077627Y-85437561D01*
X121461398Y-85539468D01*
X121753735Y-85622881D01*
X121927227Y-85680089D01*
X121963333Y-85700000D01*
X121885525Y-85735169D01*
X121670375Y-85801746D01*
X121345295Y-85892019D01*
X120937696Y-85998279D01*
X120629833Y-86075130D01*
X120172289Y-86188183D01*
X119768999Y-86289269D01*
X119450290Y-86370673D01*
X119246489Y-86424681D01*
X119190500Y-86441256D01*
X119138129Y-86416859D01*
X119105100Y-86283143D01*
X119088366Y-86018780D01*
X119084666Y-85700000D01*
X119090585Y-85316141D01*
X119110370Y-85079940D01*
X119147068Y-84970070D01*
X119190500Y-84958745D01*
X119305377Y-84991299D01*
G37*
G36*
X119305377Y-78217966D02*
G01*
X119554463Y-78282827D01*
X119907432Y-78372279D01*
X120333956Y-78478608D01*
X120629833Y-78551538D01*
X121077627Y-78664227D01*
X121461398Y-78766134D01*
X121753735Y-78849547D01*
X121927227Y-78906756D01*
X121963333Y-78926667D01*
X121885525Y-78961836D01*
X121670375Y-79028412D01*
X121345295Y-79118686D01*
X120937696Y-79224945D01*
X120629833Y-79301796D01*
X120172289Y-79414850D01*
X119768999Y-79515936D01*
X119450290Y-79597340D01*
X119246489Y-79651347D01*
X119190500Y-79667923D01*
X119138129Y-79643526D01*
X119105100Y-79509810D01*
X119088366Y-79245446D01*
X119084666Y-78926667D01*
X119090585Y-78542807D01*
X119110370Y-78306607D01*
X119147068Y-78196737D01*
X119190500Y-78185412D01*
X119305377Y-78217966D01*
G37*
G36*
X119305377Y-71444633D02*
G01*
X119554463Y-71509493D01*
X119907432Y-71598945D01*
X120333956Y-71705275D01*
X120629833Y-71778205D01*
X121077627Y-71890894D01*
X121461398Y-71992801D01*
X121753735Y-72076214D01*
X121927227Y-72133422D01*
X121963333Y-72153334D01*
X121885525Y-72188502D01*
X121670375Y-72255079D01*
X121345295Y-72345353D01*
X120937696Y-72451612D01*
X120629833Y-72528463D01*
X120172289Y-72641517D01*
X119768999Y-72742603D01*
X119450290Y-72824006D01*
X119246489Y-72878014D01*
X119190500Y-72894589D01*
X119138129Y-72870193D01*
X119105100Y-72736477D01*
X119088366Y-72472113D01*
X119084666Y-72153334D01*
X119090585Y-71769474D01*
X119110370Y-71533273D01*
X119147068Y-71423404D01*
X119190500Y-71412078D01*
X119305377Y-71444633D01*
G37*
G36*
X119305377Y-64671299D02*
G01*
X119554463Y-64736160D01*
X119907432Y-64825612D01*
X120333956Y-64931941D01*
X120629833Y-65004871D01*
X121077627Y-65117561D01*
X121461398Y-65219468D01*
X121753735Y-65302881D01*
X121927227Y-65360089D01*
X121963333Y-65380000D01*
X121885525Y-65415169D01*
X121670375Y-65481746D01*
X121345295Y-65572019D01*
X120937696Y-65678279D01*
X120629833Y-65755130D01*
X120172289Y-65868183D01*
X119768999Y-65969269D01*
X119450290Y-66050673D01*
X119246489Y-66104681D01*
X119190500Y-66121256D01*
X119138129Y-66096859D01*
X119105100Y-65963143D01*
X119088366Y-65698780D01*
X119084666Y-65380000D01*
X119090585Y-64996141D01*
X119110370Y-64759940D01*
X119147068Y-64650070D01*
X119190500Y-64638745D01*
X119305377Y-64671299D01*
G37*
G36*
X120996341Y-58607999D02*
G01*
X121403562Y-58611689D01*
X121718169Y-58617280D01*
X121912673Y-58624316D01*
X121963333Y-58630599D01*
X121885593Y-58657711D01*
X121670623Y-58717354D01*
X121345798Y-58802318D01*
X120938490Y-58905395D01*
X120629833Y-58981796D01*
X120172289Y-59094850D01*
X119768999Y-59195936D01*
X119450290Y-59277340D01*
X119246489Y-59331347D01*
X119190500Y-59347923D01*
X119120893Y-59315850D01*
X119088498Y-59142366D01*
X119084666Y-58996726D01*
X119084666Y-58606667D01*
X120524000Y-58606667D01*
X120996341Y-58607999D01*
G37*
G36*
X120037166Y-86962278D02*
G01*
X120422363Y-87091973D01*
X120755828Y-87205238D01*
X121000544Y-87289434D01*
X121116666Y-87330815D01*
X121086352Y-87349525D01*
X120913652Y-87366007D01*
X120625513Y-87378682D01*
X120248882Y-87385970D01*
X120164166Y-87386650D01*
X119084666Y-87393334D01*
X119084666Y-87018113D01*
X119084666Y-86642891D01*
X120037166Y-86962278D01*
G37*
G36*
X120143000Y-80223183D02*
G01*
X120534904Y-80356237D01*
X120861199Y-80473344D01*
X121092100Y-80563337D01*
X121197822Y-80615049D01*
X121201333Y-80620000D01*
X121125688Y-80662252D01*
X120918609Y-80745131D01*
X120609881Y-80857470D01*
X120229286Y-80988100D01*
X120143000Y-81016818D01*
X119084666Y-81367156D01*
X119084666Y-80620000D01*
X119084666Y-79872845D01*
X120143000Y-80223183D01*
G37*
G36*
X120143000Y-73449850D02*
G01*
X120534904Y-73582904D01*
X120861199Y-73700011D01*
X121092100Y-73790004D01*
X121197822Y-73841716D01*
X121201333Y-73846667D01*
X121125688Y-73888919D01*
X120918609Y-73971798D01*
X120609881Y-74084136D01*
X120229286Y-74214767D01*
X120143000Y-74243484D01*
X119084666Y-74593822D01*
X119084666Y-73846667D01*
X119084666Y-73099512D01*
X120143000Y-73449850D01*
G37*
G36*
X120143000Y-66676517D02*
G01*
X120534904Y-66809570D01*
X120861199Y-66926677D01*
X121092100Y-67016670D01*
X121197822Y-67068382D01*
X121201333Y-67073334D01*
X121125688Y-67115586D01*
X120918609Y-67198465D01*
X120609881Y-67310803D01*
X120229286Y-67441433D01*
X120143000Y-67470151D01*
X119084666Y-67820489D01*
X119084666Y-67073334D01*
X119084666Y-66326179D01*
X120143000Y-66676517D01*
G37*
G36*
X120143000Y-59903183D02*
G01*
X120534904Y-60036237D01*
X120861199Y-60153344D01*
X121092100Y-60243337D01*
X121197822Y-60295049D01*
X121201333Y-60300000D01*
X121125688Y-60342252D01*
X120918609Y-60425131D01*
X120609881Y-60537470D01*
X120229286Y-60668100D01*
X120143000Y-60696818D01*
X119084666Y-61047156D01*
X119084666Y-60300000D01*
X119084666Y-59552845D01*
X120143000Y-59903183D01*
G37*
G36*
X118830666Y-87018113D02*
G01*
X118830666Y-87393334D01*
X117751166Y-87386650D01*
X117359882Y-87380645D01*
X117051629Y-87368935D01*
X116853353Y-87353097D01*
X116792001Y-87334711D01*
X116798666Y-87330815D01*
X116925972Y-87285544D01*
X117176884Y-87199304D01*
X117514385Y-87084734D01*
X117878166Y-86962278D01*
X118830666Y-86642891D01*
X118830666Y-87018113D01*
G37*
G36*
X118777203Y-84983142D02*
G01*
X118810233Y-85116858D01*
X118826966Y-85381221D01*
X118830666Y-85700000D01*
X118824748Y-86083860D01*
X118804962Y-86320061D01*
X118768264Y-86429931D01*
X118724833Y-86441256D01*
X118609956Y-86408702D01*
X118360869Y-86343841D01*
X118007901Y-86254389D01*
X117581377Y-86148060D01*
X117285500Y-86075130D01*
X116837706Y-85962440D01*
X116453935Y-85860533D01*
X116161597Y-85777120D01*
X115988105Y-85719912D01*
X115952000Y-85700001D01*
X116029807Y-85664832D01*
X116244957Y-85598255D01*
X116570037Y-85507982D01*
X116977637Y-85401722D01*
X117285500Y-85324871D01*
X117743044Y-85211818D01*
X118146334Y-85110732D01*
X118465043Y-85029328D01*
X118668843Y-84975320D01*
X118724833Y-84958745D01*
X118777203Y-84983142D01*
G37*
G36*
X118796046Y-83318081D02*
G01*
X118819747Y-83464107D01*
X118829272Y-83728596D01*
X118830666Y-84006667D01*
X118827656Y-84373989D01*
X118814689Y-84601664D01*
X118785862Y-84719331D01*
X118735271Y-84756627D01*
X118682500Y-84750469D01*
X118556670Y-84723021D01*
X118292468Y-84668680D01*
X117917707Y-84593053D01*
X117460199Y-84501747D01*
X116947759Y-84400369D01*
X116862166Y-84383517D01*
X116355189Y-84281506D01*
X115910012Y-84187606D01*
X115551469Y-84107412D01*
X115304394Y-84046523D01*
X115193620Y-84010534D01*
X115189999Y-84006667D01*
X115269033Y-83976611D01*
X115489578Y-83920480D01*
X115826799Y-83843872D01*
X116255863Y-83752383D01*
X116751936Y-83651609D01*
X116862166Y-83629818D01*
X117380839Y-83527344D01*
X117849049Y-83434041D01*
X118238981Y-83355517D01*
X118522823Y-83297378D01*
X118672762Y-83265231D01*
X118682500Y-83262866D01*
X118752265Y-83260880D01*
X118796046Y-83318081D01*
G37*
G36*
X118830666Y-82313334D02*
G01*
X118830666Y-83096500D01*
X118597833Y-83051568D01*
X118449710Y-83025338D01*
X118161295Y-82976286D01*
X117759413Y-82908896D01*
X117270889Y-82827656D01*
X116722548Y-82737051D01*
X116396500Y-82683426D01*
X115842779Y-82590611D01*
X115349295Y-82504252D01*
X114939119Y-82428688D01*
X114635325Y-82368256D01*
X114460985Y-82327294D01*
X114428000Y-82313334D01*
X114507772Y-82287048D01*
X114731707Y-82238527D01*
X115076731Y-82172108D01*
X115519773Y-82092129D01*
X116037760Y-82002928D01*
X116396500Y-81943241D01*
X116966774Y-81849329D01*
X117492384Y-81762248D01*
X117946505Y-81686483D01*
X118302312Y-81626521D01*
X118532979Y-81586848D01*
X118597833Y-81575100D01*
X118830666Y-81530167D01*
X118830666Y-82313334D01*
G37*
G36*
X118830666Y-80620000D02*
G01*
X118830666Y-81367156D01*
X117772333Y-81016818D01*
X117380428Y-80883764D01*
X117054134Y-80766657D01*
X116823233Y-80676664D01*
X116717510Y-80624952D01*
X116714000Y-80620000D01*
X116789644Y-80577749D01*
X116996723Y-80494870D01*
X117305452Y-80382531D01*
X117686046Y-80251901D01*
X117772333Y-80223183D01*
X118830666Y-79872845D01*
X118830666Y-80620000D01*
G37*
G36*
X118777203Y-78209808D02*
G01*
X118810233Y-78343524D01*
X118826966Y-78607888D01*
X118830666Y-78926667D01*
X118824748Y-79310527D01*
X118804962Y-79546728D01*
X118768264Y-79656597D01*
X118724833Y-79667923D01*
X118609956Y-79635368D01*
X118360869Y-79570508D01*
X118007901Y-79481056D01*
X117581377Y-79374726D01*
X117285500Y-79301796D01*
X116837706Y-79189107D01*
X116453935Y-79087200D01*
X116161597Y-79003787D01*
X115988105Y-78946579D01*
X115952000Y-78926667D01*
X116029807Y-78891499D01*
X116244957Y-78824922D01*
X116570037Y-78734648D01*
X116977637Y-78628389D01*
X117285500Y-78551538D01*
X117743044Y-78438484D01*
X118146334Y-78337398D01*
X118465043Y-78255995D01*
X118668843Y-78201987D01*
X118724833Y-78185412D01*
X118777203Y-78209808D01*
G37*
G36*
X118796046Y-76544748D02*
G01*
X118819747Y-76690774D01*
X118829272Y-76955263D01*
X118830666Y-77233334D01*
X118827656Y-77600656D01*
X118814689Y-77828331D01*
X118785862Y-77945998D01*
X118735271Y-77983294D01*
X118682500Y-77977135D01*
X118556670Y-77949687D01*
X118292468Y-77895347D01*
X117917707Y-77819720D01*
X117460199Y-77728414D01*
X116947759Y-77627036D01*
X116862166Y-77610183D01*
X116355189Y-77508173D01*
X115910012Y-77414272D01*
X115551469Y-77334079D01*
X115304394Y-77273189D01*
X115193620Y-77237200D01*
X115189999Y-77233334D01*
X115269033Y-77203278D01*
X115489578Y-77147147D01*
X115826799Y-77070539D01*
X116255863Y-76979049D01*
X116751936Y-76878276D01*
X116862166Y-76856484D01*
X117380839Y-76754010D01*
X117849049Y-76660708D01*
X118238981Y-76582184D01*
X118522823Y-76524045D01*
X118672762Y-76491897D01*
X118682500Y-76489532D01*
X118752265Y-76487547D01*
X118796046Y-76544748D01*
G37*
G36*
X118830666Y-75540000D02*
G01*
X118830666Y-76323167D01*
X118597833Y-76278234D01*
X118449710Y-76252005D01*
X118161295Y-76202952D01*
X117759413Y-76135563D01*
X117270889Y-76054323D01*
X116722548Y-75963718D01*
X116396500Y-75910093D01*
X115842779Y-75817278D01*
X115349295Y-75730919D01*
X114939119Y-75655355D01*
X114635325Y-75594922D01*
X114460985Y-75553961D01*
X114428000Y-75540000D01*
X114507772Y-75513715D01*
X114731707Y-75465193D01*
X115076731Y-75398774D01*
X115519773Y-75318796D01*
X116037760Y-75229595D01*
X116396500Y-75169908D01*
X116966774Y-75075996D01*
X117492384Y-74988914D01*
X117946505Y-74913150D01*
X118302312Y-74853188D01*
X118532979Y-74813515D01*
X118597833Y-74801767D01*
X118830666Y-74756834D01*
X118830666Y-75540000D01*
G37*
G36*
X118830666Y-73846667D02*
G01*
X118830666Y-74593822D01*
X117772333Y-74243484D01*
X117380428Y-74110431D01*
X117054134Y-73993324D01*
X116823233Y-73903331D01*
X116717510Y-73851619D01*
X116714000Y-73846667D01*
X116789644Y-73804415D01*
X116996723Y-73721536D01*
X117305452Y-73609198D01*
X117686046Y-73478568D01*
X117772333Y-73449850D01*
X118830666Y-73099512D01*
X118830666Y-73846667D01*
G37*
G36*
X118777203Y-71436475D02*
G01*
X118810233Y-71570191D01*
X118826966Y-71834555D01*
X118830666Y-72153334D01*
X118824748Y-72537194D01*
X118804962Y-72773394D01*
X118768264Y-72883264D01*
X118724833Y-72894589D01*
X118609956Y-72862035D01*
X118360869Y-72797174D01*
X118007901Y-72707722D01*
X117581377Y-72601393D01*
X117285500Y-72528463D01*
X116837706Y-72415774D01*
X116453935Y-72313867D01*
X116161597Y-72230454D01*
X115988105Y-72173245D01*
X115952000Y-72153334D01*
X116029807Y-72118165D01*
X116244957Y-72051589D01*
X116570037Y-71961315D01*
X116977637Y-71855056D01*
X117285500Y-71778205D01*
X117743044Y-71665151D01*
X118146334Y-71564065D01*
X118465043Y-71482661D01*
X118668843Y-71428654D01*
X118724833Y-71412078D01*
X118777203Y-71436475D01*
G37*
G36*
X118796046Y-69771414D02*
G01*
X118819747Y-69917440D01*
X118829272Y-70181930D01*
X118830666Y-70460000D01*
X118827656Y-70827322D01*
X118814689Y-71054998D01*
X118785862Y-71172664D01*
X118735271Y-71209961D01*
X118682500Y-71203802D01*
X118556670Y-71176354D01*
X118292468Y-71122013D01*
X117917707Y-71046387D01*
X117460199Y-70955081D01*
X116947759Y-70853702D01*
X116862166Y-70836850D01*
X116355189Y-70734839D01*
X115910012Y-70640939D01*
X115551469Y-70560746D01*
X115304394Y-70499856D01*
X115193620Y-70463867D01*
X115189999Y-70460000D01*
X115269033Y-70429944D01*
X115489578Y-70373814D01*
X115826799Y-70297205D01*
X116255863Y-70205716D01*
X116751936Y-70104943D01*
X116862166Y-70083151D01*
X117380839Y-69980677D01*
X117849049Y-69887374D01*
X118238981Y-69808850D01*
X118522823Y-69750711D01*
X118672762Y-69718564D01*
X118682500Y-69716199D01*
X118752265Y-69714213D01*
X118796046Y-69771414D01*
G37*
G36*
X118830666Y-68766667D02*
G01*
X118830666Y-69549834D01*
X118597833Y-69504901D01*
X118449710Y-69478671D01*
X118161295Y-69429619D01*
X117759413Y-69362230D01*
X117270889Y-69280989D01*
X116722548Y-69190384D01*
X116396500Y-69136760D01*
X115842779Y-69043944D01*
X115349295Y-68957586D01*
X114939119Y-68882021D01*
X114635325Y-68821589D01*
X114460985Y-68780627D01*
X114428000Y-68766667D01*
X114507772Y-68740381D01*
X114731707Y-68691860D01*
X115076731Y-68625441D01*
X115519773Y-68545462D01*
X116037760Y-68456262D01*
X116396500Y-68396575D01*
X116966774Y-68302662D01*
X117492384Y-68215581D01*
X117946505Y-68139816D01*
X118302312Y-68079854D01*
X118532979Y-68040181D01*
X118597833Y-68028433D01*
X118830666Y-67983500D01*
X118830666Y-68766667D01*
G37*
G36*
X118830666Y-67073334D02*
G01*
X118830666Y-67820489D01*
X117772333Y-67470151D01*
X117380428Y-67337097D01*
X117054134Y-67219990D01*
X116823233Y-67129997D01*
X116717510Y-67078285D01*
X116714000Y-67073334D01*
X116789644Y-67031082D01*
X116996723Y-66948203D01*
X117305452Y-66835865D01*
X117686046Y-66705234D01*
X117772333Y-66676517D01*
X118830666Y-66326179D01*
X118830666Y-67073334D01*
G37*
G36*
X118777203Y-64663142D02*
G01*
X118810233Y-64796858D01*
X118826966Y-65061221D01*
X118830666Y-65380000D01*
X118824748Y-65763860D01*
X118804962Y-66000061D01*
X118768264Y-66109931D01*
X118724833Y-66121256D01*
X118609956Y-66088702D01*
X118360869Y-66023841D01*
X118007901Y-65934389D01*
X117581377Y-65828060D01*
X117285500Y-65755130D01*
X116837706Y-65642440D01*
X116453935Y-65540533D01*
X116161597Y-65457120D01*
X115988105Y-65399912D01*
X115952000Y-65380000D01*
X116029807Y-65344832D01*
X116244957Y-65278255D01*
X116570037Y-65187982D01*
X116977637Y-65081722D01*
X117285500Y-65004871D01*
X117743044Y-64891818D01*
X118146334Y-64790732D01*
X118465043Y-64709328D01*
X118668843Y-64655320D01*
X118724833Y-64638745D01*
X118777203Y-64663142D01*
G37*
G36*
X118796046Y-62998081D02*
G01*
X118819747Y-63144107D01*
X118829272Y-63408596D01*
X118830666Y-63686667D01*
X118827656Y-64053989D01*
X118814689Y-64281664D01*
X118785862Y-64399331D01*
X118735271Y-64436627D01*
X118682500Y-64430469D01*
X118556670Y-64403021D01*
X118292468Y-64348680D01*
X117917707Y-64273053D01*
X117460199Y-64181747D01*
X116947759Y-64080369D01*
X116862166Y-64063517D01*
X116355189Y-63961506D01*
X115910012Y-63867606D01*
X115551469Y-63787412D01*
X115304394Y-63726523D01*
X115193620Y-63690534D01*
X115189999Y-63686667D01*
X115269033Y-63656611D01*
X115489578Y-63600480D01*
X115826799Y-63523872D01*
X116255863Y-63432383D01*
X116751936Y-63331609D01*
X116862166Y-63309818D01*
X117380839Y-63207344D01*
X117849049Y-63114041D01*
X118238981Y-63035517D01*
X118522823Y-62977378D01*
X118672762Y-62945231D01*
X118682500Y-62942866D01*
X118752265Y-62940880D01*
X118796046Y-62998081D01*
G37*
G36*
X118830666Y-61993334D02*
G01*
X118830666Y-62776500D01*
X118597833Y-62731568D01*
X118449710Y-62705338D01*
X118161295Y-62656286D01*
X117759413Y-62588896D01*
X117270889Y-62507656D01*
X116722548Y-62417051D01*
X116396500Y-62363426D01*
X115842779Y-62270611D01*
X115349295Y-62184252D01*
X114939119Y-62108688D01*
X114635325Y-62048256D01*
X114460985Y-62007294D01*
X114428000Y-61993334D01*
X114507772Y-61967048D01*
X114731707Y-61918527D01*
X115076731Y-61852108D01*
X115519773Y-61772129D01*
X116037760Y-61682928D01*
X116396500Y-61623241D01*
X116966774Y-61529329D01*
X117492384Y-61442248D01*
X117946505Y-61366483D01*
X118302312Y-61306521D01*
X118532979Y-61266848D01*
X118597833Y-61255100D01*
X118830666Y-61210167D01*
X118830666Y-61993334D01*
G37*
G36*
X118830666Y-60300000D02*
G01*
X118830666Y-61047156D01*
X117772333Y-60696818D01*
X117380428Y-60563764D01*
X117054134Y-60446657D01*
X116823233Y-60356664D01*
X116717510Y-60304952D01*
X116714000Y-60300000D01*
X116789644Y-60257749D01*
X116996723Y-60174870D01*
X117305452Y-60062531D01*
X117686046Y-59931901D01*
X117772333Y-59903183D01*
X118830666Y-59552845D01*
X118830666Y-60300000D01*
G37*
G36*
X118830666Y-58989280D02*
G01*
X118824994Y-59222382D01*
X118789421Y-59324871D01*
X118696108Y-59335455D01*
X118597833Y-59313037D01*
X118434537Y-59271383D01*
X118143261Y-59196720D01*
X117760004Y-59098289D01*
X117320764Y-58985331D01*
X117137333Y-58938118D01*
X115909666Y-58622054D01*
X117370166Y-58614361D01*
X118830666Y-58606667D01*
X118830666Y-58989280D01*
G37*
D14*
X55107500Y-79455000D02*
X54497500Y-79895000D01*
X54497500Y-79015000D01*
X55107500Y-79455000D01*
G36*
X55107500Y-79455000D02*
G01*
X54497500Y-79895000D01*
X54497500Y-79015000D01*
X55107500Y-79455000D01*
G37*
X55107500Y-87195000D02*
X55107500Y-79755000D01*
X65147500Y-87195000D02*
X55107500Y-87195000D01*
X55107500Y-79155000D02*
X55107500Y-76795000D01*
X55107500Y-76795000D02*
X65147500Y-76795000D01*
X55727500Y-76795000D02*
X55727500Y-87195000D01*
X57227500Y-76795000D02*
X57227500Y-87195000D01*
X62127500Y-76795000D02*
X62127500Y-87195000D01*
X65147500Y-76795000D02*
X65147500Y-87195000D01*
X55107500Y-99455000D02*
X54497500Y-99895000D01*
X54497500Y-99015000D01*
X55107500Y-99455000D01*
G36*
X55107500Y-99455000D02*
G01*
X54497500Y-99895000D01*
X54497500Y-99015000D01*
X55107500Y-99455000D01*
G37*
X65147500Y-107195000D02*
X55107500Y-107195000D01*
X65147500Y-96795000D02*
X65147500Y-107195000D01*
X62127500Y-96795000D02*
X62127500Y-107195000D01*
X57227500Y-96795000D02*
X57227500Y-107195000D01*
X55727500Y-96795000D02*
X55727500Y-107195000D01*
X55107500Y-107195000D02*
X55107500Y-99755000D01*
X55107500Y-99155000D02*
X55107500Y-96795000D01*
X55107500Y-96795000D02*
X65147500Y-96795000D01*
X55107500Y-59455000D02*
X54497500Y-59895000D01*
X54497500Y-59015000D01*
X55107500Y-59455000D01*
G36*
X55107500Y-59455000D02*
G01*
X54497500Y-59895000D01*
X54497500Y-59015000D01*
X55107500Y-59455000D01*
G37*
X55107500Y-56795000D02*
X65147500Y-56795000D01*
X55107500Y-59155000D02*
X55107500Y-56795000D01*
X55107500Y-67195000D02*
X55107500Y-59755000D01*
X55727500Y-56795000D02*
X55727500Y-67195000D01*
X57227500Y-56795000D02*
X57227500Y-67195000D01*
X62127500Y-56795000D02*
X62127500Y-67195000D01*
X65147500Y-56795000D02*
X65147500Y-67195000D01*
X65147500Y-67195000D02*
X55107500Y-67195000D01*
X55452500Y-119000000D02*
X54842500Y-119440000D01*
X54842500Y-118560000D01*
X55452500Y-119000000D01*
G36*
X55452500Y-119000000D02*
G01*
X54842500Y-119440000D01*
X54842500Y-118560000D01*
X55452500Y-119000000D01*
G37*
X65492500Y-116340000D02*
X65492500Y-126740000D01*
X62472500Y-116340000D02*
X62472500Y-126740000D01*
X57572500Y-116340000D02*
X57572500Y-126740000D01*
X56072500Y-116340000D02*
X56072500Y-126740000D01*
X55452500Y-116340000D02*
X65492500Y-116340000D01*
X55452500Y-118700000D02*
X55452500Y-116340000D01*
X65492500Y-126740000D02*
X55452500Y-126740000D01*
X55452500Y-126740000D02*
X55452500Y-119300000D01*
X71000000Y-76690000D02*
X71000000Y-77380000D01*
X71000000Y-87310000D02*
X71000000Y-86620000D01*
X72720000Y-77380000D02*
X69280000Y-77380000D01*
X69280000Y-86620000D01*
X72720000Y-86620000D01*
X72720000Y-77380000D01*
X71500000Y-126810000D02*
X71500000Y-126120000D01*
X71500000Y-116190000D02*
X71500000Y-116880000D01*
X69780000Y-126120000D02*
X73220000Y-126120000D01*
X73220000Y-116880000D01*
X69780000Y-116880000D01*
X69780000Y-126120000D01*
X81300000Y-57530000D02*
X81300000Y-60470000D01*
X81180000Y-57530000D02*
X81180000Y-60470000D01*
X81060000Y-57530000D02*
X81060000Y-60470000D01*
X86740000Y-59000000D02*
X85720000Y-59000000D01*
X79260000Y-59000000D02*
X80280000Y-59000000D01*
X80280000Y-57530000D02*
X85720000Y-57530000D01*
X85720000Y-60470000D01*
X80280000Y-60470000D01*
X80280000Y-57530000D01*
X86740000Y-86000000D02*
X85720000Y-86000000D01*
X79260000Y-86000000D02*
X80280000Y-86000000D01*
X84940000Y-87470000D02*
X84940000Y-84530000D01*
X84820000Y-87470000D02*
X84820000Y-84530000D01*
X84700000Y-87470000D02*
X84700000Y-84530000D01*
X85720000Y-87470000D02*
X80280000Y-87470000D01*
X80280000Y-84530000D01*
X85720000Y-84530000D01*
X85720000Y-87470000D01*
X71327500Y-107310000D02*
X71327500Y-106620000D01*
X71327500Y-96690000D02*
X71327500Y-97380000D01*
X73047500Y-97380000D02*
X69607500Y-97380000D01*
X69607500Y-106620000D01*
X73047500Y-106620000D01*
X73047500Y-97380000D01*
X82300000Y-104530000D02*
X82300000Y-107470000D01*
X82180000Y-104530000D02*
X82180000Y-107470000D01*
X82060000Y-104530000D02*
X82060000Y-107470000D01*
X87740000Y-106000000D02*
X86720000Y-106000000D01*
X80260000Y-106000000D02*
X81280000Y-106000000D01*
X81280000Y-104530000D02*
X86720000Y-104530000D01*
X86720000Y-107470000D01*
X81280000Y-107470000D01*
X81280000Y-104530000D01*
X81300000Y-78530000D02*
X81300000Y-81470000D01*
X81180000Y-78530000D02*
X81180000Y-81470000D01*
X81060000Y-78530000D02*
X81060000Y-81470000D01*
X86740000Y-80000000D02*
X85720000Y-80000000D01*
X79260000Y-80000000D02*
X80280000Y-80000000D01*
X80280000Y-78530000D02*
X85720000Y-78530000D01*
X85720000Y-81470000D01*
X80280000Y-81470000D01*
X80280000Y-78530000D01*
X116527500Y-98155000D02*
X115127500Y-98155000D01*
X116527500Y-96755000D02*
X116527500Y-98155000D01*
X115127500Y-98155000D02*
X115127500Y-96755000D01*
X115127500Y-96755000D02*
X116527500Y-96755000D01*
X87740000Y-99000000D02*
X86720000Y-99000000D01*
X80260000Y-99000000D02*
X81280000Y-99000000D01*
X85940000Y-100470000D02*
X85940000Y-97530000D01*
X85820000Y-100470000D02*
X85820000Y-97530000D01*
X85700000Y-100470000D02*
X85700000Y-97530000D01*
X86720000Y-100470000D02*
X81280000Y-100470000D01*
X81280000Y-97530000D01*
X86720000Y-97530000D01*
X86720000Y-100470000D01*
X80260000Y-127000000D02*
X81280000Y-127000000D01*
X87740000Y-127000000D02*
X86720000Y-127000000D01*
X82060000Y-125530000D02*
X82060000Y-128470000D01*
X82180000Y-125530000D02*
X82180000Y-128470000D01*
X82300000Y-125530000D02*
X82300000Y-128470000D01*
X81280000Y-125530000D02*
X86720000Y-125530000D01*
X86720000Y-128470000D01*
X81280000Y-128470000D01*
X81280000Y-125530000D01*
X70827500Y-67845000D02*
X70827500Y-67155000D01*
X70827500Y-57225000D02*
X70827500Y-57915000D01*
X69107500Y-67155000D02*
X72547500Y-67155000D01*
X72547500Y-57915000D01*
X69107500Y-57915000D01*
X69107500Y-67155000D01*
X85700000Y-120970000D02*
X85700000Y-118030000D01*
X85820000Y-120970000D02*
X85820000Y-118030000D01*
X85940000Y-120970000D02*
X85940000Y-118030000D01*
X80260000Y-119500000D02*
X81280000Y-119500000D01*
X87740000Y-119500000D02*
X86720000Y-119500000D01*
X86720000Y-120970000D02*
X81280000Y-120970000D01*
X81280000Y-118030000D01*
X86720000Y-118030000D01*
X86720000Y-120970000D01*
X116527500Y-93455000D02*
G75*
G02*
X115127500Y-93455000I-700000J0D01*
G01*
X115127500Y-93455000D02*
G75*
G02*
X116527500Y-93455000I700000J0D01*
G01*
X86740000Y-66000000D02*
X85720000Y-66000000D01*
X79260000Y-66000000D02*
X80280000Y-66000000D01*
X84940000Y-67470000D02*
X84940000Y-64530000D01*
X84820000Y-67470000D02*
X84820000Y-64530000D01*
X84700000Y-67470000D02*
X84700000Y-64530000D01*
X85720000Y-67470000D02*
X80280000Y-67470000D01*
X80280000Y-64530000D01*
X85720000Y-64530000D01*
X85720000Y-67470000D01*
X110680000Y-113660000D02*
X110680000Y-103260000D01*
X113700000Y-113660000D02*
X113700000Y-103260000D01*
X118600000Y-113660000D02*
X118600000Y-103260000D01*
X120100000Y-113660000D02*
X120100000Y-103260000D01*
X120720000Y-113660000D02*
X110680000Y-113660000D01*
X120720000Y-111300000D02*
X120720000Y-113660000D01*
X110680000Y-103260000D02*
X120720000Y-103260000D01*
X120720000Y-103260000D02*
X120720000Y-110700000D01*
X121330000Y-111440000D02*
X120720000Y-111000000D01*
X121330000Y-110560000D01*
X121330000Y-111440000D01*
G36*
X121330000Y-111440000D02*
G01*
X120720000Y-111000000D01*
X121330000Y-110560000D01*
X121330000Y-111440000D01*
G37*
X99180000Y-118680000D02*
X119740000Y-118680000D01*
X99180000Y-121700000D02*
X119740000Y-121700000D01*
X99180000Y-126600000D02*
X119740000Y-126600000D01*
X99180000Y-128100000D02*
X119740000Y-128100000D01*
X99180000Y-128720000D02*
X99180000Y-118680000D01*
X101540000Y-128720000D02*
X99180000Y-128720000D01*
X119740000Y-118680000D02*
X119740000Y-128720000D01*
X119740000Y-128720000D02*
X102140000Y-128720000D01*
X102280000Y-129330000D02*
X101400000Y-129330000D01*
X101840000Y-128720000D01*
X102280000Y-129330000D01*
G36*
X102280000Y-129330000D02*
G01*
X101400000Y-129330000D01*
X101840000Y-128720000D01*
X102280000Y-129330000D01*
G37*
%LPC*%
D15*
X59827500Y-84535000D03*
D16*
X59827500Y-79455000D03*
D15*
X59827500Y-104535000D03*
D16*
X59827500Y-99455000D03*
D15*
X59827500Y-64535000D03*
D16*
X59827500Y-59455000D03*
D15*
X60172500Y-124080000D03*
D16*
X60172500Y-119000000D03*
D17*
X125000000Y-137000000D03*
X55000000Y-137000000D03*
X125000000Y-51000000D03*
X55000000Y-51000000D03*
D18*
X71000000Y-75650000D03*
X71000000Y-88350000D03*
X71500000Y-127850000D03*
X71500000Y-115150000D03*
D19*
X77920000Y-59000000D03*
D20*
X88080000Y-59000000D03*
D21*
X88080000Y-86000000D03*
D20*
X77920000Y-86000000D03*
D18*
X71327500Y-95650000D03*
X71327500Y-108350000D03*
D19*
X78920000Y-106000000D03*
D20*
X89080000Y-106000000D03*
D19*
X77920000Y-80000000D03*
D20*
X88080000Y-80000000D03*
D22*
X115827500Y-97455000D03*
D21*
X89080000Y-99000000D03*
D20*
X78920000Y-99000000D03*
D19*
X78920000Y-127000000D03*
D20*
X89080000Y-127000000D03*
D18*
X70827500Y-68885000D03*
X70827500Y-56185000D03*
D21*
X89080000Y-119500000D03*
D20*
X78920000Y-119500000D03*
D23*
X99000000Y-67220000D03*
D24*
X99000000Y-69760000D03*
X99000000Y-72300000D03*
X99000000Y-74840000D03*
X99000000Y-77380000D03*
X99000000Y-79920000D03*
X99000000Y-82460000D03*
X99000000Y-85000000D03*
X99000000Y-87540000D03*
X99000000Y-90080000D03*
D25*
X115827500Y-93455000D03*
D21*
X88080000Y-66000000D03*
D20*
X77920000Y-66000000D03*
D26*
X116000000Y-111000000D03*
D15*
X116000000Y-105920000D03*
D27*
X101840000Y-124000000D03*
D15*
X106920000Y-124000000D03*
X112000000Y-124000000D03*
X117080000Y-124000000D03*
%LPD*%
M02*
