M48
; DRILL file {KiCad 9.0.3} date 2025-07-29T12:04:03-0400
; FORMAT={-:-/ absolute / metric / decimal}
; #@! TF.CreationDate,2025-07-29T12:04:03-04:00
; #@! TF.GenerationSoftware,Kicad,Pcbnew,9.0.3
; #@! TF.FileFunction,Plated,1,2,PTH
FMAT,2
METRIC
; #@! TA.AperFunction,Plated,PTH,ComponentDrill
T1C0.500
; #@! TA.AperFunction,Plated,PTH,ViaDrill
T2C0.600
; #@! TA.AperFunction,Plated,PTH,ComponentDrill
T3C0.762
; #@! TA.AperFunction,Plated,PTH,ComponentDrill
T4C0.800
; #@! TA.AperFunction,Plated,PTH,ComponentDrill
T5C1.100
; #@! TA.AperFunction,Plated,PTH,ComponentDrill
T6C1.300
%
G90
G05
T1
X115.828Y-93.455
X115.828Y-97.455
T2
X78.0Y-92.0
X89.0Y-92.0
X95.0Y-76.0
T3
X99.0Y-67.22
X99.0Y-69.76
X99.0Y-72.3
X99.0Y-74.84
X99.0Y-77.38
X99.0Y-79.92
X99.0Y-82.46
X99.0Y-85.0
X99.0Y-87.54
X99.0Y-90.08
T4
X70.828Y-56.185
X70.828Y-68.885
X71.0Y-75.65
X71.0Y-88.35
X71.328Y-95.65
X71.328Y-108.35
X71.5Y-115.15
X71.5Y-127.85
T5
X77.92Y-59.0
X77.92Y-66.0
X77.92Y-80.0
X77.92Y-86.0
X78.92Y-99.0
X78.92Y-106.0
X78.92Y-119.5
X78.92Y-127.0
X88.08Y-59.0
X88.08Y-66.0
X88.08Y-80.0
X88.08Y-86.0
X89.08Y-99.0
X89.08Y-106.0
X89.08Y-119.5
X89.08Y-127.0
T6
X59.828Y-59.455
X59.828Y-64.535
X59.828Y-79.455
X59.828Y-84.535
X59.828Y-99.455
X59.828Y-104.535
X60.172Y-119.0
X60.172Y-124.08
X101.84Y-124.0
X106.92Y-124.0
X112.0Y-124.0
X116.0Y-105.92
X116.0Y-111.0
X117.08Y-124.0
M30
